<?xml version="1.0" encoding="UTF-8" standalone="no"?>
<!-- Created with Inkscape (http://www.inkscape.org/) -->

<svg
   width="43.929581mm"
   height="50.831631mm"
   viewBox="0 0 43.929581 50.831631"
   version="1.1"
   id="svg5"
   inkscape:version="1.1.2 (0a00cf5339, 2022-02-04)"
   sodipodi:docname="logo.svg"
   xmlns:inkscape="http://www.inkscape.org/namespaces/inkscape"
   xmlns:sodipodi="http://sodipodi.sourceforge.net/DTD/sodipodi-0.dtd"
   xmlns="http://www.w3.org/2000/svg"
   xmlns:svg="http://www.w3.org/2000/svg">
  <sodipodi:namedview
     id="namedview7"
     pagecolor="#ffffff"
     bordercolor="#000000"
     borderopacity="0.25"
     inkscape:pageshadow="2"
     inkscape:pageopacity="0.0"
     inkscape:pagecheckerboard="0"
     inkscape:document-units="mm"
     showgrid="false"
     inkscape:zoom="5.0336924"
     inkscape:cx="49.168678"
     inkscape:cy="117.21018"
     inkscape:window-width="1920"
     inkscape:window-height="1043"
     inkscape:window-x="0"
     inkscape:window-y="0"
     inkscape:window-maximized="1"
     inkscape:current-layer="text34017"
     showguides="true"
     inkscape:guide-bbox="true"
     fit-margin-top="0"
     fit-margin-left="0"
     fit-margin-right="0"
     fit-margin-bottom="0">
    <sodipodi:guide
       position="26.608324,41.550427"
       orientation="0,-1"
       id="guide62573" />
    <sodipodi:guide
       position="20.879456,14.466576"
       orientation="0,-1"
       id="guide66307" />
  </sodipodi:namedview>
  <defs
     id="defs2">
    <inkscape:perspective
       sodipodi:type="inkscape:persp3d"
       inkscape:vp_x="0 : 635.96801 : 1"
       inkscape:vp_y="0 : 999.99996 : 0"
       inkscape:vp_z="1500 : 635.96801 : 1"
       inkscape:persp3d-origin="750 : 341.92255 : 1"
       id="perspective4362" />
    <clipPath
       id="clp12">
      <path
         d="m 45.315,71.927 h 12.92 v 15.867 h -12.92 z"
         id="path184"
         inkscape:connector-curvature="0" />
    </clipPath>
    <clipPath
       id="clp21">
      <path
         d="m 123.91,72.178 h 26.23 v 15.294 h -26.23 z"
         id="path592"
         inkscape:connector-curvature="0" />
    </clipPath>
    <clipPath
       id="clp9">
      <path
         d="m 413.96,49.857 h 31.76 v 8.719 h -31.76 z"
         id="path100"
         inkscape:connector-curvature="0" />
    </clipPath>
    <inkscape:perspective
       sodipodi:type="inkscape:persp3d"
       inkscape:vp_x="0 : 389.7996 : 1"
       inkscape:vp_y="0 : 999.99992 : 0"
       inkscape:vp_z="1500 : 389.7996 : 1"
       inkscape:persp3d-origin="749.99998 : 95.754155 : 1"
       id="perspective4362-535" />
    <clipPath
       id="clp12-6">
      <path
         d="m 45.315,71.927 h 12.92 v 15.867 h -12.92 z"
         id="path184-2"
         inkscape:connector-curvature="0" />
    </clipPath>
    <clipPath
       id="clp21-9">
      <path
         d="m 123.91,72.178 h 26.23 v 15.294 h -26.23 z"
         id="path592-12"
         inkscape:connector-curvature="0" />
    </clipPath>
    <clipPath
       id="clp9-7">
      <path
         d="m 413.96,49.857 h 31.76 v 8.719 h -31.76 z"
         id="path100-0"
         inkscape:connector-curvature="0" />
    </clipPath>
    <inkscape:perspective
       sodipodi:type="inkscape:persp3d"
       inkscape:vp_x="0 : 389.7996 : 1"
       inkscape:vp_y="0 : 999.99992 : 0"
       inkscape:vp_z="1500 : 389.7996 : 1"
       inkscape:persp3d-origin="749.99998 : 95.754155 : 1"
       id="perspective4362-5" />
    <clipPath
       id="clp12-3">
      <path
         d="m 45.315,71.927 h 12.92 v 15.867 h -12.92 z"
         id="path184-5"
         inkscape:connector-curvature="0" />
    </clipPath>
    <clipPath
       id="clp21-6">
      <path
         d="m 123.91,72.178 h 26.23 v 15.294 h -26.23 z"
         id="path592-2"
         inkscape:connector-curvature="0" />
    </clipPath>
    <clipPath
       id="clp9-9">
      <path
         d="m 413.96,49.857 h 31.76 v 8.719 h -31.76 z"
         id="path100-1"
         inkscape:connector-curvature="0" />
    </clipPath>
    <inkscape:perspective
       sodipodi:type="inkscape:persp3d"
       inkscape:vp_x="0 : 635.96801 : 1"
       inkscape:vp_y="0 : 999.99996 : 0"
       inkscape:vp_z="1500 : 635.96801 : 1"
       inkscape:persp3d-origin="750 : 341.92255 : 1"
       id="perspective4362-9" />
    <clipPath
       id="clp12-37">
      <path
         d="m 45.315,71.927 h 12.92 v 15.867 h -12.92 z"
         id="path184-4"
         inkscape:connector-curvature="0" />
    </clipPath>
    <clipPath
       id="clp21-5">
      <path
         d="m 123.91,72.178 h 26.23 v 15.294 h -26.23 z"
         id="path592-25"
         inkscape:connector-curvature="0" />
    </clipPath>
    <clipPath
       id="clp9-4">
      <path
         d="m 413.96,49.857 h 31.76 v 8.719 h -31.76 z"
         id="path100-7"
         inkscape:connector-curvature="0" />
    </clipPath>
    <inkscape:perspective
       sodipodi:type="inkscape:persp3d"
       inkscape:vp_x="0 : 635.96801 : 1"
       inkscape:vp_y="0 : 999.99996 : 0"
       inkscape:vp_z="1500 : 635.96801 : 1"
       inkscape:persp3d-origin="750 : 341.92255 : 1"
       id="perspective4362-6" />
    <clipPath
       id="clp12-8">
      <path
         d="m 45.315,71.927 h 12.92 v 15.867 h -12.92 z"
         id="path184-9"
         inkscape:connector-curvature="0" />
    </clipPath>
    <clipPath
       id="clp21-2">
      <path
         d="m 123.91,72.178 h 26.23 v 15.294 h -26.23 z"
         id="path592-6"
         inkscape:connector-curvature="0" />
    </clipPath>
    <clipPath
       id="clp9-6">
      <path
         d="m 413.96,49.857 h 31.76 v 8.719 h -31.76 z"
         id="path100-4"
         inkscape:connector-curvature="0" />
    </clipPath>
    <inkscape:perspective
       sodipodi:type="inkscape:persp3d"
       inkscape:vp_x="0 : 635.96801 : 1"
       inkscape:vp_y="0 : 999.99996 : 0"
       inkscape:vp_z="1500 : 635.96801 : 1"
       inkscape:persp3d-origin="750 : 341.92255 : 1"
       id="perspective4362-53" />
    <clipPath
       id="clp12-5">
      <path
         d="m 45.315,71.927 h 12.92 v 15.867 h -12.92 z"
         id="path184-6"
         inkscape:connector-curvature="0" />
    </clipPath>
    <clipPath
       id="clp21-29">
      <path
         d="m 123.91,72.178 h 26.23 v 15.294 h -26.23 z"
         id="path592-1"
         inkscape:connector-curvature="0" />
    </clipPath>
    <clipPath
       id="clp9-2">
      <path
         d="m 413.96,49.857 h 31.76 v 8.719 h -31.76 z"
         id="path100-70"
         inkscape:connector-curvature="0" />
    </clipPath>
  </defs>
  <g
     inkscape:label="Layer 1"
     inkscape:groupmode="layer"
     id="layer1"
     transform="translate(134.31887,576.54601)">
    <text
       xml:space="preserve"
       style="font-size:4.23333px;font-family:sans-serif;-inkscape-font-specification:sans-serif;fill:#fdf0e3;fill-opacity:1;stroke:#4a280d;stroke-width:15;stroke-linecap:round;stroke-linejoin:round;stroke-miterlimit:4;stroke-dasharray:none"
       x="-105.7908"
       y="-558.50726"
       id="text265343"><tspan
         sodipodi:role="line"
         id="tspan265341"
         style="stroke-width:15;stroke-miterlimit:4;stroke-dasharray:none"
         x="-105.7908"
         y="-558.50726" /></text>
    <text
       xml:space="preserve"
       style="font-size:4.23333px;font-family:sans-serif;-inkscape-font-specification:sans-serif;fill:#fdf0e3;fill-opacity:1;stroke:#4a280d;stroke-width:15;stroke-linecap:round;stroke-linejoin:round;stroke-miterlimit:4;stroke-dasharray:none"
       x="-106.25206"
       y="-560.1264"
       id="text268683"><tspan
         sodipodi:role="line"
         id="tspan268681"
         style="stroke-width:15"
         x="-106.25206"
         y="-560.1264" /></text>
    <text
       xml:space="preserve"
       style="font-size:4.23333px;font-family:sans-serif;-inkscape-font-specification:sans-serif;fill:#fdf0e3;fill-opacity:1;stroke:#4a280d;stroke-width:5;stroke-linecap:round;stroke-linejoin:round;stroke-miterlimit:4;stroke-dasharray:none"
       x="-78.450752"
       y="-551.28766"
       id="text270271"><tspan
         sodipodi:role="line"
         id="tspan270269"
         style="stroke-width:5;stroke-miterlimit:4;stroke-dasharray:none"
         x="-78.450752"
         y="-551.28766" /></text>
    <text
       xml:space="preserve"
       style="font-size:4.23333px;font-family:sans-serif;-inkscape-font-specification:sans-serif;fill:#fdf0e3;fill-opacity:1;stroke:#4a280d;stroke-width:4.99999;stroke-linecap:round;stroke-linejoin:round;stroke-miterlimit:4;stroke-dasharray:none"
       x="-75.665482"
       y="-548.79803"
       id="text275393"><tspan
         sodipodi:role="line"
         id="tspan275391"
         style="stroke-width:5"
         x="-75.665482"
         y="-548.79803" /></text>
    <g
       id="g46348">
      <g
         id="g57961"
         transform="rotate(-30,-112.35409,-551.13016)">
        <g
           id="g57911">
          <g
             id="g43251"
             transform="rotate(30,-112.35408,-551.13016)">
            <path
               sodipodi:type="star"
               style="fill:#d0ffaf;fill-opacity:1;stroke:#000000;stroke-width:21.7043;stroke-miterlimit:4;stroke-dasharray:none;stroke-opacity:1"
               id="path4560"
               sodipodi:sides="6"
               sodipodi:cx="-5551.2134"
               sodipodi:cy="-204.52565"
               sodipodi:r1="1701.6108"
               sodipodi:r2="1473.6381"
               sodipodi:arg1="1.0471976"
               sodipodi:arg2="1.5707963"
               inkscape:flatsided="true"
               inkscape:rounded="0"
               inkscape:randomized="0"
               inkscape:transform-center-x="1.5731476e-05"
               inkscape:transform-center-y="7.9344316e-05"
               transform="matrix(0,0.01457052,-0.01454011,0,-115.32791,-470.24609)"
               d="m -4700.408,1269.1126 -1701.6109,-10e-5 -850.8053,-1473.63823 850.8055,-1473.63817 1701.6108,10e-5 850.8054,1473.63823 z" />
            <g
               id="g8113">
              <g
                 id="g42964"
                 transform="translate(-4.371329e-5,0.24176317)">
                <g
                   id="g58046"
                   transform="translate(0,0.26458741)">
                  <g
                     aria-label="cpp11eigen"
                     id="text34017"
                     style="font-weight:bold;font-size:4.93889px;font-family:'Comic Sans MS';-inkscape-font-specification:'Comic Sans MS Bold';stroke-width:0.315912;stroke-linecap:round;stroke-linejoin:round">
                    <path
                       d="m -122.67631,-539.22538 q 0.14322,0 0.28645,0.0247 0.14817,0.0247 0.2667,0.0691 0.11854,0.0444 0.19262,0.10866 0.0741,0.0642 0.0741,0.14816 0,0.21732 -0.24694,0.21732 -0.0593,0 -0.1136,-0.0148 -0.0494,-0.0198 -0.11853,-0.0346 -0.0691,-0.0198 -0.17286,-0.0346 -0.10372,-0.0198 -0.25682,-0.0198 -0.32597,0 -0.50377,0.22225 -0.1778,0.22225 -0.1778,0.57785 0,0.39017 0.1778,0.62724 0.18274,0.23706 0.51364,0.23706 0.20744,0 0.33585,-0.0346 0.12841,-0.0346 0.20743,-0.079 0.084,-0.0444 0.13335,-0.079 0.0543,-0.0346 0.11854,-0.0346 0.0889,0 0.13828,0.0395 0.0543,0.0346 0.0543,0.14816 0,0.11854 -0.0938,0.20744 -0.0889,0.0889 -0.22719,0.14816 -0.13828,0.0593 -0.30127,0.0889 -0.15804,0.0296 -0.29139,0.0296 -0.59761,0 -0.93839,-0.33091 -0.34079,-0.3309 -0.34079,-0.93839 0,-0.26176 0.079,-0.49389 0.084,-0.23706 0.24694,-0.41486 0.16298,-0.1778 0.40005,-0.28152 0.24201,-0.10372 0.5581,-0.10372 z"
                       style="font-weight:normal;font-family:Sniglet;-inkscape-font-specification:Sniglet"
                       id="path79545" />
                    <path
                       d="m -120.80941,-535.99534 q 0,0.0938 -0.005,0.1778 -0.005,0.0889 -0.0346,0.15804 -0.0247,0.0692 -0.079,0.10866 -0.0494,0.0444 -0.14323,0.0444 -0.10865,0 -0.18273,-0.079 -0.0691,-0.0741 -0.079,-0.26671 -0.005,-0.12347 -0.0148,-0.30127 -0.01,-0.1778 -0.0198,-0.37535 -0.005,-0.19756 -0.0148,-0.39511 -0.005,-0.19756 -0.005,-0.36548 0,-0.57785 0.079,-0.95321 0.084,-0.37535 0.24694,-0.5976 0.16299,-0.22225 0.40005,-0.31115 0.24201,-0.0889 0.5581,-0.0889 0.25188,0 0.47413,0.079 0.22225,0.0741 0.38523,0.23707 0.16793,0.15804 0.2667,0.41486 0.0988,0.25189 0.0988,0.60749 0,0.29633 -0.10372,0.52352 -0.0988,0.22719 -0.27657,0.38523 -0.1778,0.15311 -0.41981,0.23707 -0.23707,0.079 -0.5087,0.079 -0.23213,0 -0.41981,-0.0938 -0.18274,-0.0988 -0.26176,-0.21237 0.0247,0.27658 0.0395,0.51364 0.0198,0.23707 0.0198,0.47414 z m 0.68156,-2.75096 q -0.17286,0 -0.30127,0.0593 -0.12347,0.0593 -0.20249,0.16299 -0.079,0.10371 -0.11854,0.24694 -0.0346,0.14323 -0.0346,0.31115 0,0.16298 0.0296,0.31115 0.0346,0.14323 0.10866,0.25188 0.0741,0.10866 0.19755,0.17286 0.12348,0.0642 0.30128,0.0642 0.13829,0 0.2667,-0.0346 0.12841,-0.0395 0.22719,-0.12841 0.10371,-0.0889 0.16298,-0.23707 0.0642,-0.14817 0.0642,-0.37042 0,-0.22719 -0.0642,-0.38029 -0.0593,-0.15805 -0.16298,-0.25188 -0.0988,-0.0988 -0.22719,-0.13829 -0.12348,-0.0395 -0.24695,-0.0395 z"
                       style="font-weight:normal;font-family:Sniglet;-inkscape-font-specification:Sniglet"
                       id="path79547" />
                    <path
                       d="m -117.90041,-535.99534 q 0,0.0938 -0.005,0.1778 -0.005,0.0889 -0.0346,0.15804 -0.0247,0.0692 -0.079,0.10866 -0.0494,0.0444 -0.14323,0.0444 -0.10865,0 -0.18273,-0.079 -0.0692,-0.0741 -0.079,-0.26671 -0.005,-0.12347 -0.0148,-0.30127 -0.01,-0.1778 -0.0198,-0.37535 -0.005,-0.19756 -0.0148,-0.39511 -0.005,-0.19756 -0.005,-0.36548 0,-0.57785 0.079,-0.95321 0.084,-0.37535 0.24694,-0.5976 0.16299,-0.22225 0.40005,-0.31115 0.24201,-0.0889 0.5581,-0.0889 0.25188,0 0.47413,0.079 0.22225,0.0741 0.38523,0.23707 0.16793,0.15804 0.2667,0.41486 0.0988,0.25189 0.0988,0.60749 0,0.29633 -0.10371,0.52352 -0.0988,0.22719 -0.27658,0.38523 -0.1778,0.15311 -0.41981,0.23707 -0.23707,0.079 -0.5087,0.079 -0.23213,0 -0.41981,-0.0938 -0.18274,-0.0988 -0.26176,-0.21237 0.0247,0.27658 0.0395,0.51364 0.0198,0.23707 0.0198,0.47414 z m 0.68156,-2.75096 q -0.17286,0 -0.30127,0.0593 -0.12347,0.0593 -0.20249,0.16299 -0.079,0.10371 -0.11854,0.24694 -0.0346,0.14323 -0.0346,0.31115 0,0.16298 0.0296,0.31115 0.0346,0.14323 0.10866,0.25188 0.0741,0.10866 0.19755,0.17286 0.12348,0.0642 0.30128,0.0642 0.13829,0 0.2667,-0.0346 0.12841,-0.0395 0.22719,-0.12841 0.10371,-0.0889 0.16298,-0.23707 0.0642,-0.14817 0.0642,-0.37042 0,-0.22719 -0.0642,-0.38029 -0.0593,-0.15805 -0.16298,-0.25188 -0.0988,-0.0988 -0.22719,-0.13829 -0.12348,-0.0395 -0.24695,-0.0395 z"
                       style="font-weight:normal;font-family:Sniglet;-inkscape-font-specification:Sniglet"
                       id="path79549" />
                    <path
                       d="m -114.87288,-537.01275 q -0.01,-0.1778 -0.0148,-0.37042 0,-0.19262 -0.005,-0.41487 -0.005,-0.22225 -0.005,-0.47907 0,-0.26176 0,-0.58279 v -0.61736 l -0.29633,0.15311 q -0.12347,0.079 -0.19755,0.0938 -0.0692,0.0148 -0.15311,0.0148 -0.0741,0 -0.13335,-0.0642 -0.0543,-0.0642 -0.0543,-0.15311 0,-0.0889 0.0593,-0.15311 0.0642,-0.0691 0.14817,-0.12347 0.10865,-0.0741 0.23212,-0.14816 0.12841,-0.0741 0.24695,-0.13335 0.11853,-0.0642 0.21731,-0.0988 0.10372,-0.0395 0.17286,-0.0395 0.0346,0 0.0691,0.01 0.0395,0.01 0.0691,0.0395 0.0346,0.0296 0.0543,0.0938 0.0247,0.0593 0.0296,0.16299 0.01,0.1778 0.0148,0.31115 0.005,0.13335 0.01,0.26176 0.005,0.12347 0.005,0.26176 0,0.13829 0,0.32103 0,0.22225 0,0.42474 0,0.2025 -0.005,0.40005 -0.005,0.19756 -0.01,0.40005 -0.005,0.2025 -0.0148,0.42475 -0.005,0.11853 -0.0247,0.18274 -0.0148,0.0642 -0.0444,0.0988 -0.0296,0.0346 -0.0692,0.0395 -0.0346,0.01 -0.084,0.01 -0.0889,0 -0.14817,-0.0593 -0.0593,-0.0642 -0.0691,-0.2667 z"
                       style="font-weight:normal;font-family:Sniglet;-inkscape-font-specification:Sniglet"
                       id="path79551" />
                    <path
                       d="m -113.14921,-537.01275 q -0.01,-0.1778 -0.0148,-0.37042 0,-0.19262 -0.005,-0.41487 -0.005,-0.22225 -0.005,-0.47907 0,-0.26176 0,-0.58279 v -0.61736 l -0.29633,0.15311 q -0.12347,0.079 -0.19756,0.0938 -0.0691,0.0148 -0.1531,0.0148 -0.0741,0 -0.13335,-0.0642 -0.0543,-0.0642 -0.0543,-0.15311 0,-0.0889 0.0593,-0.15311 0.0642,-0.0691 0.14816,-0.12347 0.10866,-0.0741 0.23213,-0.14816 0.12841,-0.0741 0.24695,-0.13335 0.11853,-0.0642 0.21731,-0.0988 0.10371,-0.0395 0.17286,-0.0395 0.0346,0 0.0691,0.01 0.0395,0.01 0.0691,0.0395 0.0346,0.0296 0.0543,0.0938 0.0247,0.0593 0.0296,0.16299 0.01,0.1778 0.0148,0.31115 0.005,0.13335 0.01,0.26176 0.005,0.12347 0.005,0.26176 0,0.13829 0,0.32103 0,0.22225 0,0.42474 0,0.2025 -0.005,0.40005 -0.005,0.19756 -0.01,0.40005 -0.005,0.2025 -0.0148,0.42475 -0.005,0.11853 -0.0247,0.18274 -0.0148,0.0642 -0.0444,0.0988 -0.0296,0.0346 -0.0691,0.0395 -0.0346,0.01 -0.084,0.01 -0.0889,0 -0.14817,-0.0593 -0.0593,-0.0642 -0.0691,-0.2667 z"
                       style="font-weight:normal;font-family:Sniglet;-inkscape-font-specification:Sniglet"
                       id="path79553" />
                    <path
                       d="m -110.94153,-537.6153 q -0.17287,0 -0.36548,-0.0247 -0.18768,-0.0296 -0.40993,-0.11854 0.0444,0.30128 0.24694,0.45438 0.20744,0.15311 0.59267,0.15311 0.13829,0 0.24695,-0.0148 0.11359,-0.0198 0.19755,-0.0395 0.084,-0.0247 0.14817,-0.0395 0.0642,-0.0198 0.11853,-0.0198 0.0691,0 0.13335,0.0444 0.0642,0.0395 0.0642,0.13829 0,0.12347 -0.10372,0.2025 -0.0988,0.079 -0.24694,0.12841 -0.14323,0.0444 -0.30622,0.0593 -0.16298,0.0198 -0.28645,0.0198 -0.2914,0 -0.53834,-0.079 -0.24201,-0.079 -0.41981,-0.23707 -0.1778,-0.16298 -0.27657,-0.40005 -0.0988,-0.23707 -0.0988,-0.55316 0,-0.30621 0.0938,-0.54327 0.0988,-0.23707 0.2667,-0.40005 0.16792,-0.16299 0.39511,-0.24695 0.23213,-0.084 0.49883,-0.084 0.20743,0 0.40005,0.0543 0.19755,0.0543 0.34572,0.16298 0.15311,0.10866 0.24201,0.27658 0.0938,0.16298 0.0938,0.38523 0,0.19756 -0.0741,0.33585 -0.0741,0.13829 -0.21237,0.22225 -0.13335,0.084 -0.32597,0.12347 -0.18768,0.0395 -0.4198,0.0395 z m -0.0346,-1.14582 q -0.13335,0 -0.25682,0.0346 -0.12347,0.0296 -0.22719,0.10372 -0.0988,0.0691 -0.16792,0.18768 -0.0691,0.11359 -0.0938,0.28645 0.18768,0.084 0.36548,0.11853 0.1778,0.0296 0.37535,0.0296 0.2914,0 0.42969,-0.0691 0.14323,-0.0741 0.14323,-0.26176 0,-0.17286 -0.13335,-0.30127 -0.12842,-0.12841 -0.43463,-0.12841 z"
                       style="font-weight:normal;font-family:Sniglet;-inkscape-font-specification:Sniglet"
                       id="path79555" />
                    <path
                       d="m -109.40554,-537.01275 q -0.01,-0.18274 -0.0198,-0.41487 -0.005,-0.23707 -0.005,-0.51858 0,-0.35067 0.005,-0.59761 0.005,-0.25188 0.0247,-0.40993 0.0247,-0.16298 0.0741,-0.23706 0.0494,-0.079 0.13829,-0.079 0.084,0 0.14817,0.0593 0.0642,0.0593 0.0741,0.25682 0.0296,0.51859 0.0296,1.0026 0,0.24694 -0.01,0.46425 -0.01,0.21237 -0.0198,0.4692 -0.005,0.11853 -0.0247,0.18274 -0.0148,0.0642 -0.0445,0.0988 -0.0296,0.0346 -0.0691,0.0395 -0.0346,0.01 -0.084,0.01 -0.0889,0 -0.14817,-0.0593 -0.0593,-0.0642 -0.0691,-0.2667 z m 0.22225,-3.15102 q 0.11359,0 0.20743,0.0889 0.0988,0.0889 0.0988,0.21238 0,0.11853 -0.0988,0.20743 -0.0988,0.084 -0.22225,0.084 -0.10371,0 -0.19755,-0.084 -0.0889,-0.0889 -0.0889,-0.21731 0,-0.11853 0.0889,-0.2025 0.0938,-0.0889 0.21237,-0.0889 z"
                       style="font-weight:normal;font-family:Sniglet;-inkscape-font-specification:Sniglet"
                       id="path79557" />
                    <path
                       d="m -107.35096,-536.02992 q 0.23212,0 0.39017,-0.0938 0.16298,-0.0889 0.26176,-0.26177 0.0988,-0.16792 0.13829,-0.40498 0.0444,-0.24201 0.0444,-0.54328 -0.0444,0.15804 -0.12841,0.2667 -0.084,0.10865 -0.19756,0.1778 -0.10865,0.0642 -0.24694,0.0938 -0.13829,0.0296 -0.28646,0.0296 -0.22719,0 -0.42968,-0.0642 -0.2025,-0.0642 -0.3556,-0.20249 -0.14817,-0.13829 -0.23707,-0.35066 -0.0889,-0.21731 -0.0889,-0.51858 0,-0.2914 0.084,-0.5334 0.0889,-0.24695 0.25189,-0.42475 0.16792,-0.1778 0.40499,-0.27658 0.23706,-0.0988 0.54327,-0.0988 0.16299,0 0.28646,0.0296 0.12841,0.0296 0.22719,0.079 0.0988,0.0494 0.17286,0.11853 0.079,0.0691 0.14323,0.14817 0.18768,0.23707 0.27164,0.56303 0.084,0.32103 0.084,0.77541 0,0.33584 -0.0593,0.68651 -0.0543,0.35066 -0.20249,0.63217 -0.14817,0.28646 -0.40993,0.46426 -0.26176,0.18274 -0.67169,0.18274 -0.0741,0 -0.16792,-0.01 -0.0889,-0.005 -0.18768,-0.0198 -0.0938,-0.0148 -0.18768,-0.0444 -0.0938,-0.0247 -0.17286,-0.0692 -0.0988,-0.0543 -0.15804,-0.10372 -0.0593,-0.0494 -0.0593,-0.16298 0,-0.0938 0.0395,-0.17286 0.0444,-0.0741 0.14817,-0.0741 0.0494,0 0.10865,0.0296 0.0593,0.0296 0.14323,0.0593 0.0889,0.0346 0.20743,0.0642 0.12348,0.0296 0.29634,0.0296 z m 0.0247,-1.18533 q 0.19262,0 0.32597,-0.0691 0.13829,-0.0741 0.22225,-0.19262 0.0889,-0.11853 0.12841,-0.2667 0.0445,-0.14817 0.0445,-0.29633 0,-0.12348 -0.0346,-0.24695 -0.0296,-0.12841 -0.10372,-0.23213 -0.0741,-0.10371 -0.20249,-0.16792 -0.12842,-0.0642 -0.32103,-0.0642 -0.32597,0 -0.52846,0.19755 -0.19756,0.19756 -0.19756,0.58279 0,0.36054 0.1778,0.5581 0.1778,0.19755 0.48895,0.19755 z"
                       style="font-weight:normal;font-family:Sniglet;-inkscape-font-specification:Sniglet"
                       id="path79559" />
                    <path
                       d="m -104.42715,-537.6153 q -0.17286,0 -0.36547,-0.0247 -0.18768,-0.0296 -0.40993,-0.11854 0.0444,0.30128 0.24694,0.45438 0.20744,0.15311 0.59267,0.15311 0.13829,0 0.24694,-0.0148 0.1136,-0.0198 0.19756,-0.0395 0.084,-0.0247 0.14817,-0.0395 0.0642,-0.0198 0.11853,-0.0198 0.0691,0 0.13335,0.0444 0.0642,0.0395 0.0642,0.13829 0,0.12347 -0.10371,0.2025 -0.0988,0.079 -0.24695,0.12841 -0.14322,0.0444 -0.30621,0.0593 -0.16298,0.0198 -0.28645,0.0198 -0.2914,0 -0.53834,-0.079 -0.24201,-0.079 -0.41981,-0.23707 -0.1778,-0.16298 -0.27658,-0.40005 -0.0988,-0.23707 -0.0988,-0.55316 0,-0.30621 0.0938,-0.54327 0.0988,-0.23707 0.2667,-0.40005 0.16792,-0.16299 0.39511,-0.24695 0.23212,-0.084 0.49882,-0.084 0.20744,0 0.40005,0.0543 0.19756,0.0543 0.34573,0.16298 0.1531,0.10866 0.242,0.27658 0.0938,0.16298 0.0938,0.38523 0,0.19756 -0.0741,0.33585 -0.0741,0.13829 -0.21237,0.22225 -0.13335,0.084 -0.32597,0.12347 -0.18768,0.0395 -0.41981,0.0395 z m -0.0346,-1.14582 q -0.13335,0 -0.25682,0.0346 -0.12347,0.0296 -0.22719,0.10372 -0.0988,0.0691 -0.16792,0.18768 -0.0691,0.11359 -0.0938,0.28645 0.18768,0.084 0.36548,0.11853 0.1778,0.0296 0.37535,0.0296 0.2914,0 0.42969,-0.0691 0.14322,-0.0741 0.14322,-0.26176 0,-0.17286 -0.13335,-0.30127 -0.12841,-0.12841 -0.43462,-0.12841 z"
                       style="font-weight:normal;font-family:Sniglet;-inkscape-font-specification:Sniglet"
                       id="path79561" />
                    <path
                       d="m -101.76509,-538.81051 q -0.18273,0 -0.3309,0.0593 -0.14323,0.0593 -0.32597,0.1778 0,0.10371 0,0.30621 0,0.19755 -0.005,0.43462 -0.005,0.23213 -0.01,0.45932 -0.005,0.22719 -0.0198,0.38029 -0.01,0.0988 -0.0247,0.15805 -0.01,0.0543 -0.0346,0.084 -0.0198,0.0296 -0.0593,0.0395 -0.0346,0.005 -0.0938,0.005 -0.0593,0 -0.0988,-0.005 -0.0346,-0.01 -0.0593,-0.0346 -0.0247,-0.0296 -0.0395,-0.084 -0.0148,-0.0543 -0.0247,-0.14816 -0.01,-0.0889 -0.0198,-0.23707 -0.005,-0.14817 -0.01,-0.32103 -0.005,-0.1778 -0.01,-0.3556 0,-0.18274 0,-0.33584 0,-0.25188 0.005,-0.40993 0.01,-0.15804 0.0296,-0.28152 0.0296,-0.20743 0.079,-0.26176 0.0494,-0.0543 0.13335,-0.0543 0.12347,0 0.18274,0.0691 0.0642,0.0691 0.079,0.22719 0.18274,-0.15805 0.39017,-0.25188 0.21238,-0.0938 0.43463,-0.0938 0.21237,0 0.38523,0.0988 0.1778,0.0988 0.29139,0.32103 0.0692,0.13335 0.10372,0.29634 0.0346,0.15804 0.0494,0.33584 0.005,0.079 0.01,0.15804 0.005,0.0741 0.005,0.16299 0.005,0.084 0.005,0.19261 0,0.10866 0,0.25683 0,0.15804 -0.005,0.29633 -0.005,0.13829 -0.0296,0.24201 -0.0198,0.0988 -0.0741,0.15804 -0.0543,0.0543 -0.14817,0.0543 -0.22719,0 -0.23706,-0.21731 0,-0.0148 0,-0.12348 0,-0.11359 -0.005,-0.26176 0,-0.14816 -0.005,-0.30127 0,-0.1531 -0.005,-0.25188 -0.005,-0.079 -0.0148,-0.16792 -0.005,-0.0938 -0.0198,-0.18768 -0.01,-0.0938 -0.0296,-0.1778 -0.0198,-0.0889 -0.0494,-0.15805 -0.0692,-0.16298 -0.17287,-0.20743 -0.10371,-0.0444 -0.22225,-0.0444 z"
                       style="font-weight:normal;font-family:Sniglet;-inkscape-font-specification:Sniglet"
                       id="path79563" />
                  </g>
                  <path
                     d="m -117.41658,-551.44426 c -1.26413,-3.58168 -4.15647,-7.12532 -6.87174,-5.84611 -2.71527,1.2792 -2.45635,12.89492 5.12867,10.13669 0,0 3.15841,-1.17277 3.31966,-2.5318 0.0114,-0.66369 -0.71627,-0.60204 -1.33295,-0.3553 1.35678,-0.57971 1.23347,-1.7886 -0.24364,-1.40348"
                     style="fill:#1f3b7f;fill-opacity:1;fill-rule:nonzero;stroke:none;stroke-width:0.0106858"
                     id="path62437" />
                  <path
                     d="m -117.41658,-551.44426 c -1.26413,-3.58168 -4.15647,-7.12532 -6.87174,-5.84611 -2.71527,1.2792 -2.45635,12.89492 5.12867,10.13669 0,0 3.15841,-1.17277 3.31966,-2.5318 0.0114,-0.66369 -0.71627,-0.60204 -1.33295,-0.3553 1.35678,-0.57971 1.23347,-1.7886 -0.24364,-1.40348 z"
                     style="fill:none;stroke:#000000;stroke-width:0.322178;stroke-linecap:round;stroke-linejoin:round;stroke-miterlimit:10;stroke-dasharray:none;stroke-opacity:1"
                     id="path62439" />
                  <path
                     d="m -120.64317,-566.77833 c -1.07798,1.87355 -7.49483,16.35115 -1.69584,22.42851 5.47799,5.5639 16.71971,3.06801 20.67518,0.7432 5.005032,-2.77885 0.53162,-2.66612 -0.52094,-2.05307 4.452793,-2.07028 1.59604,-3.14591 -0.10418,-2.29008 2.37097,-1.52669 -0.13753,-2.34715 -1.93884,-1.84363 -1.52925,-8.09923 -6.94676,-18.15834 -8.07091,-17.88318 -0.68635,0 -1.42464,1.64476 -1.42464,1.64476 0,0 -2.99075,0.0664 -4.77529,0.002 -0.374,-0.84129 -1.06666,-2.62166 -2.14454,-0.74811"
                     style="fill:#4d73e9;fill-opacity:1;fill-rule:nonzero;stroke:none;stroke-width:0.0106858"
                     id="path62441" />
                  <path
                     d="m -120.64317,-566.77833 c -1.07798,1.87355 -7.49483,16.35115 -1.69584,22.42851 5.47799,5.5639 16.71971,3.06801 20.67518,0.7432 5.005032,-2.77885 0.53162,-2.66612 -0.52094,-2.05307 4.452793,-2.07028 1.59604,-3.14591 -0.10418,-2.29008 2.37097,-1.52669 -0.13753,-2.34715 -1.93884,-1.84363 -1.52925,-8.09923 -6.94676,-18.15834 -8.07091,-17.88318 -0.68635,0 -1.42464,1.64476 -1.42464,1.64476 0,0 -2.99075,0.0664 -4.77529,0.002 -0.374,-0.84129 -1.06666,-2.62166 -2.14454,-0.74811 z"
                     style="fill:none;stroke:#000000;stroke-width:0.322178;stroke-linecap:round;stroke-linejoin:round;stroke-miterlimit:10;stroke-dasharray:none;stroke-opacity:1"
                     id="path62443" />
                  <path
                     d="m -103.30357,-548.58654 -4.84539,3.17925 -3.60979,-5.64501 4.82776,-3.16761 z"
                     style="fill:#a36249;fill-opacity:1;fill-rule:nonzero;stroke:none;stroke-width:0.0106858"
                     id="path62445" />
                  <path
                     d="m -103.30357,-548.58654 -4.84539,3.17925 -3.60979,-5.64501 4.82776,-3.16761 z"
                     style="fill:none;stroke:#000000;stroke-width:0.322178;stroke-linecap:round;stroke-linejoin:round;stroke-miterlimit:10;stroke-dasharray:none;stroke-opacity:1"
                     id="path62447" />
                  <path
                     d="m -108.14576,-545.43123 -0.98726,0.67032 -3.58863,-5.61199 0.9629,-0.6794 z"
                     style="fill:#e0c9c0;fill-opacity:1;fill-rule:nonzero;stroke:none;stroke-width:0.0106858"
                     id="path62449" />
                  <path
                     d="m -108.14576,-545.43123 -0.98726,0.67032 -3.58863,-5.61199 0.9629,-0.6794 z"
                     style="fill:none;stroke:#000000;stroke-width:0.322178;stroke-linecap:round;stroke-linejoin:round;stroke-miterlimit:10;stroke-dasharray:none;stroke-opacity:1"
                     id="path62451" />
                  <path
                     d="m -118.93343,-555.3323 c -0.0461,0.51463 -0.25187,0.94805 -0.4238,0.89141 -0.17183,-0.0566 -0.41023,-0.59873 -0.43652,-0.8975 -0.0262,-0.29878 0.12706,-0.51463 0.39976,-0.56165 0.2727,-0.047 0.48182,0.14212 0.46056,0.56774"
                     style="fill:#718fed;fill-opacity:1;fill-rule:nonzero;stroke:none;stroke-width:0.0106858"
                     id="path62453" />
                  <path
                     d="m -115.40593,-555.3323 c -0.0461,0.51463 -0.25186,0.94805 -0.4238,0.89141 -0.17183,-0.0566 -0.41023,-0.59873 -0.43652,-0.8975 -0.0262,-0.29878 0.12706,-0.51463 0.39976,-0.56165 0.2727,-0.047 0.48183,0.14212 0.46056,0.56774"
                     style="fill:#718fed;fill-opacity:1;fill-rule:nonzero;stroke:none;stroke-width:0.0106858"
                     id="path62455" />
                  <path
                     d="m -117.16973,-552.17773 c -0.0461,0.51463 -0.25187,0.94804 -0.4238,0.89141 -0.17183,-0.0566 -0.41023,-0.59873 -0.43652,-0.89751 -0.0262,-0.29866 0.12705,-0.51463 0.39976,-0.56164 0.2727,-0.047 0.48182,0.14212 0.46056,0.56774"
                     style="fill:#718fed;fill-opacity:1;fill-rule:nonzero;stroke:none;stroke-width:0.0106858"
                     id="path62457" />
                  <path
                     d="m -113.64223,-552.17773 c -0.046,0.51463 -0.25187,0.94804 -0.4238,0.89141 -0.17183,-0.0566 -0.41023,-0.59873 -0.43652,-0.89751 -0.0262,-0.29866 0.12706,-0.51463 0.39976,-0.56164 0.2727,-0.047 0.48182,0.14212 0.46056,0.56774"
                     style="fill:#718fed;fill-opacity:1;fill-rule:nonzero;stroke:none;stroke-width:0.0106858"
                     id="path62459" />
                  <path
                     d="m -111.98721,-555.3323 c -0.046,0.51463 -0.25186,0.94805 -0.4238,0.89141 -0.17183,-0.0566 -0.41012,-0.59873 -0.43652,-0.8975 -0.0261,-0.29878 0.12717,-0.51463 0.39976,-0.56165 0.2727,-0.047 0.48183,0.14212 0.46056,0.56774"
                     style="fill:#718fed;fill-opacity:1;fill-rule:nonzero;stroke:none;stroke-width:0.0106858"
                     id="path62461" />
                  <path
                     d="m -117.51446,-562.26421 c 0,0.92123 -0.74683,1.66806 -1.66806,1.66806 -0.92133,0 -1.66817,-0.74683 -1.66817,-1.66806 0,-0.92122 0.74684,-1.66806 1.66817,-1.66806 0.92123,0 1.66806,0.74684 1.66806,1.66806"
                     style="fill:#ffffff;fill-opacity:1;fill-rule:nonzero;stroke:none;stroke-width:0.0106858"
                     id="path62463" />
                  <path
                     d="m -117.51446,-562.26421 c 0,0.92123 -0.74683,1.66806 -1.66806,1.66806 -0.92133,0 -1.66817,-0.74683 -1.66817,-1.66806 0,-0.92122 0.74684,-1.66806 1.66817,-1.66806 0.92123,0 1.66806,0.74684 1.66806,1.66806 z"
                     style="fill:none;stroke:#000000;stroke-width:0.322178;stroke-linecap:round;stroke-linejoin:round;stroke-miterlimit:10;stroke-dasharray:none;stroke-opacity:1"
                     id="path62465" />
                  <path
                     d="m -111.25897,-562.26421 c 0,0.92123 -0.74683,1.66806 -1.66806,1.66806 -0.92133,0 -1.66816,-0.74683 -1.66816,-1.66806 0,-0.92122 0.74683,-1.66806 1.66816,-1.66806 0.92123,0 1.66806,0.74684 1.66806,1.66806"
                     style="fill:#ffffff;fill-opacity:1;fill-rule:nonzero;stroke:none;stroke-width:0.0106858"
                     id="path62467" />
                  <path
                     d="m -111.25897,-562.26421 c 0,0.92123 -0.74683,1.66806 -1.66806,1.66806 -0.92133,0 -1.66816,-0.74683 -1.66816,-1.66806 0,-0.92122 0.74683,-1.66806 1.66816,-1.66806 0.92123,0 1.66806,0.74684 1.66806,1.66806 z"
                     style="fill:none;stroke:#000000;stroke-width:0.322178;stroke-linecap:round;stroke-linejoin:round;stroke-miterlimit:10;stroke-dasharray:none;stroke-opacity:1"
                     id="path62469" />
                  <path
                     d="m -100.52184,-551.73972 c -1.34342,-3.8064 -4.4171,-7.5722 -7.3027,-6.21275 -2.8856,1.35945 -2.61034,13.70352 5.45031,10.7724 0,0 3.356532,-1.2464 3.527826,-2.6907 0.01218,-0.70526 -0.761152,-0.63976 -1.416516,-0.37764 1.441842,-0.61603 1.310727,-1.90058 -0.25892,-1.49131"
                     style="fill:#1f3b7f;fill-opacity:1;fill-rule:nonzero;stroke:none;stroke-width:0.0106858"
                     id="path62471" />
                  <path
                     d="m -100.52184,-551.73972 c -1.34342,-3.8064 -4.4171,-7.5722 -7.3027,-6.21275 -2.8856,1.35945 -2.61034,13.70352 5.45031,10.7724 0,0 3.356532,-1.2464 3.527826,-2.6907 0.01218,-0.70526 -0.761152,-0.63976 -1.416516,-0.37764 1.441842,-0.61603 1.310727,-1.90058 -0.25892,-1.49131 z"
                     style="fill:none;stroke:#000000;stroke-width:0.322178;stroke-linecap:round;stroke-linejoin:round;stroke-miterlimit:10;stroke-dasharray:none;stroke-opacity:1"
                     id="path62473" />
                  <path
                     d="m -118.67665,-562.20714 c 0,0.27943 -0.22643,0.50597 -0.50587,0.50597 -0.27954,0 -0.50597,-0.22654 -0.50597,-0.50597 0,-0.27944 0.22643,-0.50598 0.50597,-0.50598 0.27944,0 0.50587,0.22654 0.50587,0.50598"
                     style="fill:#000000;fill-opacity:1;fill-rule:nonzero;stroke:none;stroke-width:0.0106858"
                     id="path62475" />
                  <path
                     d="m -112.42105,-562.20714 c 0,0.27943 -0.22654,0.50597 -0.50598,0.50597 -0.27943,0 -0.50597,-0.22654 -0.50597,-0.50597 0,-0.27944 0.22654,-0.50598 0.50597,-0.50598 0.27944,0 0.50598,0.22654 0.50598,0.50598"
                     style="fill:#000000;fill-opacity:1;fill-rule:nonzero;stroke:none;stroke-width:0.0106858"
                     id="path62477" />
                  <path
                     d="m -115.79596,-558.58625 c -0.44977,0 -1.5113,-1.55821 -1.14061,-2.08812 0.37059,-0.5298 1.92484,-0.43897 2.04345,-0.009 0.11872,0.42978 -0.45318,2.09741 -0.90284,2.09741"
                     style="fill:#d6714a;fill-opacity:1;fill-rule:nonzero;stroke:none;stroke-width:0.0106858"
                     id="path62479" />
                  <path
                     d="m -115.79596,-558.58625 c -0.44977,0 -1.5113,-1.55821 -1.14061,-2.08812 0.37059,-0.5298 1.92484,-0.43897 2.04345,-0.009 0.11872,0.42978 -0.45318,2.09741 -0.90284,2.09741 z"
                     style="fill:none;stroke:#000000;stroke-width:0.322178;stroke-linecap:round;stroke-linejoin:round;stroke-miterlimit:10;stroke-dasharray:none;stroke-opacity:1"
                     id="path62481" />
                </g>
              </g>
            </g>
          </g>
          <g
             aria-label="Design by ms_potato"
             id="text3611"
             style="font-weight:bold;font-size:2.11667px;font-family:Georgia;-inkscape-font-specification:'Georgia Bold';fill:#ffaf8c;stroke-width:0.315912;stroke-linecap:round;stroke-linejoin:round">
            <path
               d="m -122.16589,-532.03341 q 0.21802,0 0.34925,0.0656 0.13123,0.0656 0.20109,0.17357 0.0699,0.10795 0.091,0.24554 0.0233,0.13758 0.0233,0.2794 0,0.15451 -0.0402,0.2921 -0.0381,0.13758 -0.12065,0.2413 -0.0804,0.1016 -0.20744,0.16298 -0.127,0.0593 -0.30268,0.0593 -0.1397,0 -0.22437,-0.0212 -0.0825,-0.019 -0.12911,-0.0593 -0.0444,-0.0402 -0.0593,-0.1016 -0.0148,-0.0614 -0.0148,-0.14393 v -0.79587 q 0,-0.091 0.0148,-0.1651 0.0169,-0.0741 0.0635,-0.12488 0.0466,-0.0529 0.13123,-0.0804 0.0868,-0.0275 0.22437,-0.0275 z m 0.008,1.3081 q 0.13123,0 0.2159,-0.0466 0.0868,-0.0487 0.13758,-0.127 0.0508,-0.0783 0.0699,-0.1778 0.0212,-0.0995 0.0212,-0.2032 0,-0.0952 -0.0148,-0.1905 -0.0148,-0.0974 -0.0614,-0.17568 -0.0466,-0.0783 -0.13335,-0.127 -0.0868,-0.0487 -0.23072,-0.0487 -0.13123,0 -0.18203,0.0381 -0.0508,0.0381 -0.0508,0.11641 v 0.81069 q 0,0.0656 0.0466,0.0995 0.0487,0.0317 0.18204,0.0317 z"
               style="font-family:Sniglet;-inkscape-font-specification:'Sniglet Bold';fill:#000000"
               id="path79566" />
            <path
               d="m -120.79852,-530.92639 q -0.0741,0 -0.15663,-0.0106 -0.0804,-0.0127 -0.17569,-0.0508 0.0191,0.12912 0.10583,0.19474 0.0889,0.0656 0.25401,0.0656 0.0593,0 0.10583,-0.006 0.0487,-0.008 0.0847,-0.0169 0.036,-0.0106 0.0635,-0.0169 0.0275,-0.008 0.0508,-0.008 0.0296,0 0.0572,0.019 0.0275,0.0169 0.0275,0.0593 0,0.0529 -0.0444,0.0868 -0.0423,0.0339 -0.10583,0.055 -0.0614,0.019 -0.13123,0.0254 -0.0699,0.008 -0.12277,0.008 -0.12488,0 -0.23072,-0.0339 -0.10372,-0.0339 -0.17992,-0.1016 -0.0762,-0.0698 -0.11853,-0.17145 -0.0423,-0.1016 -0.0423,-0.23706 0,-0.13124 0.0402,-0.23284 0.0423,-0.1016 0.1143,-0.17145 0.072,-0.0698 0.16934,-0.10583 0.0995,-0.036 0.21378,-0.036 0.0889,0 0.17145,0.0233 0.0847,0.0233 0.14817,0.0699 0.0656,0.0466 0.10372,0.11853 0.0402,0.0698 0.0402,0.1651 0,0.0847 -0.0318,0.14394 -0.0318,0.0593 -0.091,0.0953 -0.0572,0.036 -0.1397,0.0529 -0.0804,0.0169 -0.17992,0.0169 z m -0.0148,-0.49107 q -0.0572,0 -0.11006,0.0148 -0.0529,0.0127 -0.0974,0.0444 -0.0423,0.0296 -0.072,0.0804 -0.0296,0.0487 -0.0402,0.12277 0.0804,0.036 0.15664,0.0508 0.0762,0.0127 0.16087,0.0127 0.12488,0 0.18415,-0.0296 0.0614,-0.0317 0.0614,-0.11218 0,-0.0741 -0.0572,-0.12912 -0.055,-0.055 -0.18627,-0.055 z"
               style="font-family:Sniglet;-inkscape-font-specification:'Sniglet Bold';fill:#000000"
               id="path79568" />
            <path
               d="m -119.78252,-531.64183 q 0.0445,0 0.11218,0.008 0.0677,0.006 0.12912,0.0275 0.0614,0.019 0.10583,0.055 0.0444,0.036 0.0444,0.091 0,0.0317 -0.019,0.055 -0.0169,0.0233 -0.055,0.0233 -0.0275,0 -0.0635,-0.008 -0.0339,-0.008 -0.0762,-0.019 -0.0402,-0.0127 -0.0889,-0.0212 -0.0466,-0.008 -0.0995,-0.008 -0.0889,0 -0.14605,0.0275 -0.055,0.0275 -0.055,0.0868 0,0.0339 0.0191,0.0571 0.0212,0.0233 0.055,0.0423 0.036,0.0169 0.0826,0.0296 0.0487,0.0127 0.1016,0.0254 0.0656,0.0169 0.12911,0.0381 0.0656,0.0212 0.11642,0.0593 0.0508,0.036 0.0825,0.0931 0.0318,0.055 0.0318,0.13758 0,0.15664 -0.11853,0.24977 -0.11854,0.091 -0.34925,0.091 -0.0508,0 -0.12065,-0.008 -0.0699,-0.006 -0.13124,-0.0275 -0.0614,-0.019 -0.10583,-0.055 -0.0423,-0.0381 -0.0423,-0.0995 0,-0.0423 0.019,-0.0635 0.0212,-0.0233 0.0508,-0.0233 0.0233,0 0.0487,0.0148 0.0254,0.0148 0.0614,0.0317 0.036,0.0169 0.0868,0.0317 0.0508,0.0148 0.12488,0.0148 0.0275,0 0.072,-0.002 0.0444,-0.004 0.0868,-0.019 0.0444,-0.0148 0.0741,-0.0402 0.0318,-0.0275 0.0318,-0.0762 0,-0.0381 -0.0212,-0.0635 -0.0212,-0.0275 -0.0572,-0.0466 -0.036,-0.019 -0.0847,-0.0317 -0.0466,-0.0148 -0.0995,-0.0296 -0.0614,-0.0169 -0.12489,-0.0381 -0.0614,-0.0212 -0.11218,-0.055 -0.0508,-0.0339 -0.0825,-0.0847 -0.0318,-0.0529 -0.0318,-0.12911 0,-0.072 0.0296,-0.13335 0.0296,-0.0635 0.0847,-0.11007 0.055,-0.0466 0.13123,-0.072 0.0783,-0.0254 0.17357,-0.0254 z"
               style="font-family:Sniglet;-inkscape-font-specification:'Sniglet Bold';fill:#000000"
               id="path79570" />
            <path
               d="m -119.16657,-530.66816 q -0.004,-0.0783 -0.008,-0.1778 -0.002,-0.1016 -0.002,-0.22225 0,-0.15028 0.002,-0.25612 0.002,-0.10795 0.0106,-0.17568 0.0106,-0.0698 0.0318,-0.1016 0.0212,-0.0339 0.0593,-0.0339 0.036,0 0.0635,0.0254 0.0275,0.0254 0.0318,0.11007 0.0127,0.22225 0.0127,0.42968 0,0.10584 -0.004,0.19897 -0.004,0.091 -0.008,0.20108 -0.002,0.0508 -0.0106,0.0783 -0.006,0.0275 -0.019,0.0423 -0.0127,0.0148 -0.0296,0.0169 -0.0148,0.004 -0.036,0.004 -0.0381,0 -0.0635,-0.0254 -0.0254,-0.0275 -0.0296,-0.1143 z m 0.0952,-1.35044 q 0.0487,0 0.0889,0.0381 0.0423,0.0381 0.0423,0.091 0,0.0508 -0.0423,0.0889 -0.0423,0.036 -0.0952,0.036 -0.0444,0 -0.0847,-0.036 -0.0381,-0.0381 -0.0381,-0.0931 0,-0.0508 0.0381,-0.0868 0.0402,-0.0381 0.091,-0.0381 z"
               style="font-family:Sniglet;-inkscape-font-specification:'Sniglet Bold';fill:#000000"
               id="path79572" />
            <path
               d="m -118.28604,-530.24694 q 0.0995,0 0.16722,-0.0402 0.0699,-0.0381 0.11218,-0.11218 0.0423,-0.072 0.0593,-0.17357 0.0191,-0.10372 0.0191,-0.23283 -0.0191,0.0677 -0.055,0.1143 -0.036,0.0466 -0.0847,0.0762 -0.0466,0.0275 -0.10583,0.0402 -0.0593,0.0127 -0.12277,0.0127 -0.0974,0 -0.18415,-0.0275 -0.0868,-0.0275 -0.1524,-0.0868 -0.0635,-0.0593 -0.1016,-0.15028 -0.0381,-0.0931 -0.0381,-0.22225 0,-0.12488 0.036,-0.2286 0.0381,-0.10583 0.10795,-0.18203 0.072,-0.0762 0.17357,-0.11854 0.1016,-0.0423 0.23283,-0.0423 0.0698,0 0.12277,0.0127 0.055,0.0127 0.0974,0.0339 0.0423,0.0212 0.0741,0.0508 0.0339,0.0296 0.0614,0.0635 0.0804,0.1016 0.11642,0.2413 0.036,0.13758 0.036,0.33231 0,0.14394 -0.0254,0.29422 -0.0233,0.15028 -0.0868,0.27093 -0.0635,0.12277 -0.17568,0.19897 -0.11219,0.0783 -0.28787,0.0783 -0.0317,0 -0.072,-0.004 -0.0381,-0.002 -0.0804,-0.008 -0.0402,-0.006 -0.0804,-0.019 -0.0402,-0.0106 -0.0741,-0.0296 -0.0423,-0.0233 -0.0677,-0.0444 -0.0254,-0.0212 -0.0254,-0.0698 0,-0.0402 0.0169,-0.0741 0.019,-0.0317 0.0635,-0.0317 0.0212,0 0.0466,0.0127 0.0254,0.0127 0.0614,0.0254 0.0381,0.0148 0.0889,0.0275 0.0529,0.0127 0.127,0.0127 z m 0.0106,-0.508 q 0.0826,0 0.1397,-0.0296 0.0593,-0.0317 0.0953,-0.0825 0.0381,-0.0508 0.055,-0.1143 0.0191,-0.0635 0.0191,-0.127 0,-0.0529 -0.0148,-0.10583 -0.0127,-0.055 -0.0444,-0.0995 -0.0318,-0.0444 -0.0868,-0.072 -0.055,-0.0275 -0.13758,-0.0275 -0.1397,0 -0.22649,0.0847 -0.0847,0.0847 -0.0847,0.24977 0,0.15451 0.0762,0.23918 0.0762,0.0847 0.20955,0.0847 z"
               style="font-family:Sniglet;-inkscape-font-specification:'Sniglet Bold';fill:#000000"
               id="path79574" />
            <path
               d="m -117.0245,-531.43863 q -0.0783,0 -0.14182,0.0254 -0.0614,0.0254 -0.1397,0.0762 0,0.0444 0,0.13124 0,0.0847 -0.002,0.18626 -0.002,0.0995 -0.004,0.19685 -0.002,0.0974 -0.008,0.16299 -0.004,0.0423 -0.0106,0.0677 -0.004,0.0233 -0.0148,0.036 -0.008,0.0127 -0.0254,0.0169 -0.0148,0.002 -0.0402,0.002 -0.0254,0 -0.0423,-0.002 -0.0148,-0.004 -0.0254,-0.0148 -0.0106,-0.0127 -0.0169,-0.036 -0.006,-0.0233 -0.0106,-0.0635 -0.004,-0.0381 -0.008,-0.1016 -0.002,-0.0635 -0.004,-0.13759 -0.002,-0.0762 -0.004,-0.1524 0,-0.0783 0,-0.14393 0,-0.10795 0.002,-0.17568 0.004,-0.0677 0.0127,-0.12065 0.0127,-0.0889 0.0339,-0.11219 0.0212,-0.0233 0.0572,-0.0233 0.0529,0 0.0783,0.0296 0.0275,0.0296 0.0339,0.0974 0.0783,-0.0677 0.16722,-0.10795 0.091,-0.0402 0.18626,-0.0402 0.091,0 0.1651,0.0423 0.0762,0.0423 0.12489,0.13758 0.0296,0.0571 0.0444,0.127 0.0148,0.0677 0.0212,0.14393 0.002,0.0339 0.004,0.0677 0.002,0.0317 0.002,0.0698 0.002,0.036 0.002,0.0826 0,0.0466 0,0.11006 0,0.0677 -0.002,0.127 -0.002,0.0593 -0.0127,0.10372 -0.008,0.0423 -0.0318,0.0677 -0.0233,0.0233 -0.0635,0.0233 -0.0974,0 -0.1016,-0.0931 0,-0.006 0,-0.0529 0,-0.0487 -0.002,-0.11219 0,-0.0635 -0.002,-0.12911 0,-0.0656 -0.002,-0.10795 -0.002,-0.0339 -0.006,-0.072 -0.002,-0.0402 -0.008,-0.0804 -0.004,-0.0402 -0.0127,-0.0762 -0.008,-0.0381 -0.0212,-0.0677 -0.0296,-0.0698 -0.0741,-0.0889 -0.0444,-0.019 -0.0953,-0.019 z"
               style="font-family:Sniglet;-inkscape-font-specification:'Sniglet Bold';fill:#000000"
               id="path79576" />
            <path
               d="m -115.66772,-531.92123 q 0,0.127 -0.008,0.2667 -0.006,0.13759 -0.0169,0.26882 0.0275,-0.0571 0.072,-0.0974 0.0444,-0.0423 0.0974,-0.0677 0.055,-0.0254 0.1143,-0.0381 0.0593,-0.0127 0.1143,-0.0127 0.0953,0 0.1778,0.036 0.0847,0.0339 0.14605,0.1016 0.0635,0.0656 0.0974,0.1651 0.036,0.0974 0.036,0.22437 0,0.12277 -0.036,0.22437 -0.036,0.1016 -0.10795,0.17568 -0.0699,0.072 -0.17568,0.11218 -0.10372,0.0402 -0.23919,0.0402 -0.18415,0 -0.28998,-0.0741 -0.10372,-0.0741 -0.15452,-0.19685 -0.0508,-0.12489 -0.0635,-0.28575 -0.0106,-0.16087 -0.0106,-0.33655 0,-0.1778 0.006,-0.32174 0.006,-0.14393 0.019,-0.23283 0.0127,-0.0804 0.0423,-0.1143 0.0296,-0.0339 0.0783,-0.0339 0.036,0 0.0571,0.0169 0.0212,0.0148 0.0296,0.0423 0.0106,0.0275 0.0127,0.0635 0.002,0.0339 0.002,0.0741 z m 0.31327,0.52917 q -0.0614,0 -0.11854,0.0212 -0.055,0.019 -0.0995,0.0614 -0.0423,0.0423 -0.0677,0.10795 -0.0254,0.0635 -0.0254,0.15452 0,0.16086 0.0783,0.24553 0.0804,0.0825 0.21379,0.0825 0.055,0 0.11218,-0.0148 0.0571,-0.0169 0.10372,-0.055 0.0466,-0.0402 0.0762,-0.10583 0.0296,-0.0656 0.0296,-0.16299 0,-0.0868 -0.0254,-0.15028 -0.0233,-0.0635 -0.0656,-0.10372 -0.0423,-0.0423 -0.0974,-0.0614 -0.055,-0.019 -0.1143,-0.019 z"
               style="font-family:Sniglet;-inkscape-font-specification:'Sniglet Bold';fill:#000000"
               id="path79578" />
            <path
               d="m -114.41254,-530.14958 q -0.0275,0.0487 -0.0529,0.072 -0.0233,0.0233 -0.055,0.0233 -0.0296,0 -0.0593,-0.019 -0.0296,-0.019 -0.0296,-0.0529 0,-0.0317 0.0212,-0.091 0.0233,-0.0593 0.055,-0.12912 0.0339,-0.0698 0.0699,-0.14393 0.036,-0.0741 0.0656,-0.13547 l 0.0148,-0.0318 q -0.0635,-0.12488 -0.13123,-0.2667 -0.0656,-0.14181 -0.12065,-0.26881 -0.055,-0.127 -0.091,-0.22014 -0.0339,-0.0952 -0.0339,-0.12488 0,-0.0275 0.0212,-0.0466 0.0233,-0.0212 0.0572,-0.0212 0.0296,0 0.0571,0.0127 0.0275,0.0106 0.0508,0.0508 0.0339,0.0635 0.0699,0.14605 0.0381,0.0804 0.0741,0.16933 0.0381,0.0889 0.0762,0.17992 0.0402,0.091 0.0804,0.17568 0.0466,-0.0868 0.0995,-0.18203 0.0529,-0.0952 0.1016,-0.18415 0.0508,-0.0889 0.0931,-0.16299 0.0423,-0.0762 0.072,-0.127 0.0296,-0.0487 0.0593,-0.0699 0.0296,-0.0212 0.0614,-0.0212 0.0212,0 0.0423,0.0191 0.0212,0.0169 0.0212,0.0466 0,0.0444 -0.0402,0.14394 -0.0381,0.0974 -0.0995,0.22648 -0.0614,0.12912 -0.1397,0.27728 -0.0762,0.14605 -0.1524,0.28787 -0.0762,0.1397 -0.14605,0.26247 -0.0677,0.12276 -0.11218,0.20531 z"
               style="font-family:Sniglet;-inkscape-font-specification:'Sniglet Bold';fill:#000000"
               id="path79580" />
            <path
               d="m -111.69474,-530.60043 q -0.0127,-0.036 -0.0169,-0.0804 -0.002,-0.0444 -0.002,-0.11007 0,-0.0466 0,-0.072 0.002,-0.0275 0.002,-0.0466 0,-0.0212 0,-0.0402 0.002,-0.0212 0.002,-0.0572 0,-0.0741 -0.004,-0.14816 -0.002,-0.0762 -0.0212,-0.13547 -0.0191,-0.0614 -0.0593,-0.0995 -0.0402,-0.0381 -0.11642,-0.0381 -0.12911,0 -0.20108,0.12276 -0.072,0.12277 -0.0868,0.39159 -0.004,0.0847 -0.004,0.15451 0,0.0698 -0.008,0.12065 -0.008,0.0487 -0.0317,0.0762 -0.0212,0.0275 -0.072,0.0275 -0.0466,0 -0.0677,-0.0233 -0.0212,-0.0254 -0.0318,-0.0741 -0.008,-0.0487 -0.0106,-0.11853 0,-0.0698 -0.006,-0.16298 -0.006,-0.1016 -0.0212,-0.19474 -0.0127,-0.0931 -0.0444,-0.16298 -0.0296,-0.072 -0.0825,-0.1143 -0.0508,-0.0423 -0.13124,-0.0423 -0.0762,0 -0.11853,0.0381 -0.0402,0.036 -0.0593,0.0974 -0.019,0.0593 -0.0233,0.13547 -0.002,0.0741 -0.002,0.15028 0,0.0381 0,0.0572 0.002,0.0169 0.002,0.0317 0,0.0148 0,0.0381 0.002,0.0233 0.002,0.072 0,0.0698 -0.004,0.12065 -0.002,0.0508 -0.0148,0.0868 -0.0148,0.0423 -0.0402,0.0529 -0.0254,0.008 -0.0466,0.008 -0.0656,0 -0.0847,-0.0466 -0.019,-0.0466 -0.0212,-0.13547 0,-0.0487 -0.002,-0.10795 0,-0.0614 0,-0.14816 0,-0.0423 0,-0.0741 0,-0.0317 0,-0.0614 0.002,-0.0296 0.002,-0.0593 0.002,-0.0317 0.004,-0.072 0.006,-0.12912 0.0466,-0.20532 0.0402,-0.0783 0.0953,-0.11853 0.055,-0.0402 0.11853,-0.0508 0.0635,-0.0127 0.11642,-0.0127 0.1143,0 0.19262,0.0339 0.0783,0.0339 0.127,0.0889 0.0508,0.055 0.0741,0.12489 0.0254,0.0698 0.0339,0.14181 0.008,-0.0699 0.0339,-0.13758 0.0275,-0.0698 0.0783,-0.12277 0.0529,-0.055 0.13547,-0.0889 0.0825,-0.0339 0.2032,-0.0339 0.0571,0 0.11641,0.0127 0.0614,0.0106 0.11219,0.0508 0.0508,0.0402 0.0847,0.11641 0.036,0.0741 0.0423,0.20109 0.002,0.0402 0.002,0.072 0.002,0.0296 0.002,0.0593 0.002,0.0296 0.002,0.0614 0,0.0317 0,0.0741 0,0.0868 -0.002,0.14816 0,0.0593 0,0.10795 0,0.0402 -0.004,0.0741 -0.002,0.0339 -0.0127,0.0571 -0.0106,0.0233 -0.0318,0.0381 -0.0191,0.0127 -0.0572,0.0127 -0.036,0 -0.055,-0.0127 -0.0191,-0.0148 -0.0318,-0.0487 z"
               style="font-family:Sniglet;-inkscape-font-specification:'Sniglet Bold';fill:#000000"
               id="path79582" />
            <path
               d="m -110.87982,-531.64183 q 0.0444,0 0.11218,0.008 0.0677,0.006 0.12912,0.0275 0.0614,0.019 0.10583,0.055 0.0444,0.036 0.0444,0.091 0,0.0317 -0.019,0.055 -0.0169,0.0233 -0.055,0.0233 -0.0275,0 -0.0635,-0.008 -0.0339,-0.008 -0.0762,-0.019 -0.0402,-0.0127 -0.0889,-0.0212 -0.0466,-0.008 -0.0995,-0.008 -0.0889,0 -0.14605,0.0275 -0.055,0.0275 -0.055,0.0868 0,0.0339 0.019,0.0571 0.0212,0.0233 0.055,0.0423 0.036,0.0169 0.0825,0.0296 0.0487,0.0127 0.1016,0.0254 0.0656,0.0169 0.12911,0.0381 0.0656,0.0212 0.11642,0.0593 0.0508,0.036 0.0825,0.0931 0.0318,0.055 0.0318,0.13758 0,0.15664 -0.11853,0.24977 -0.11854,0.091 -0.34925,0.091 -0.0508,0 -0.12065,-0.008 -0.0698,-0.006 -0.13124,-0.0275 -0.0614,-0.019 -0.10583,-0.055 -0.0423,-0.0381 -0.0423,-0.0995 0,-0.0423 0.0191,-0.0635 0.0212,-0.0233 0.0508,-0.0233 0.0233,0 0.0487,0.0148 0.0254,0.0148 0.0614,0.0317 0.036,0.0169 0.0868,0.0317 0.0508,0.0148 0.12488,0.0148 0.0275,0 0.072,-0.002 0.0444,-0.004 0.0868,-0.019 0.0444,-0.0148 0.0741,-0.0402 0.0318,-0.0275 0.0318,-0.0762 0,-0.0381 -0.0212,-0.0635 -0.0212,-0.0275 -0.0572,-0.0466 -0.036,-0.019 -0.0847,-0.0317 -0.0466,-0.0148 -0.0995,-0.0296 -0.0614,-0.0169 -0.12489,-0.0381 -0.0614,-0.0212 -0.11218,-0.055 -0.0508,-0.0339 -0.0825,-0.0847 -0.0318,-0.0529 -0.0318,-0.12911 0,-0.072 0.0296,-0.13335 0.0296,-0.0635 0.0847,-0.11007 0.055,-0.0466 0.13123,-0.072 0.0783,-0.0254 0.17357,-0.0254 z"
               style="font-family:Sniglet;-inkscape-font-specification:'Sniglet Bold';fill:#000000"
               id="path79584" />
            <path
               d="m -109.2775,-530.49459 q -0.14605,0.004 -0.35984,0.006 -0.21166,0.004 -0.4826,0.004 -0.14393,0 -0.20531,-0.0169 -0.0614,-0.0169 -0.0614,-0.0868 0,-0.019 0.004,-0.0339 0.004,-0.0169 0.0191,-0.0296 0.0148,-0.0148 0.0402,-0.0233 0.0275,-0.008 0.0698,-0.0127 0.0445,-0.002 0.091,-0.004 0.0487,-0.002 0.10795,-0.002 0.0614,-0.002 0.1397,-0.002 0.0783,0 0.18415,0 0.1143,0 0.22648,0.002 0.11219,0 0.22437,0.006 0.0508,0.002 0.0783,0.0106 0.0275,0.008 0.0423,0.0212 0.0148,0.0127 0.0169,0.0296 0.004,0.0169 0.004,0.0381 0,0.0381 -0.0275,0.0635 -0.0254,0.0254 -0.11218,0.0296 z"
               style="font-family:Sniglet;-inkscape-font-specification:'Sniglet Bold';fill:#000000"
               id="path79586" />
            <path
               d="m -108.75681,-530.23213 q 0,0.0402 -0.002,0.0762 -0.002,0.0381 -0.0148,0.0677 -0.0106,0.0296 -0.0339,0.0466 -0.0212,0.0191 -0.0614,0.0191 -0.0466,0 -0.0783,-0.0339 -0.0296,-0.0318 -0.0339,-0.1143 -0.002,-0.0529 -0.006,-0.12912 -0.004,-0.0762 -0.008,-0.16087 -0.002,-0.0847 -0.006,-0.16933 -0.002,-0.0847 -0.002,-0.15663 0,-0.24765 0.0339,-0.40852 0.036,-0.16087 0.10583,-0.25612 0.0699,-0.0952 0.17145,-0.13335 0.10372,-0.0381 0.23919,-0.0381 0.10795,0 0.2032,0.0339 0.0952,0.0318 0.1651,0.1016 0.072,0.0677 0.1143,0.1778 0.0423,0.10795 0.0423,0.26035 0,0.127 -0.0444,0.22437 -0.0423,0.0974 -0.11853,0.1651 -0.0762,0.0656 -0.17992,0.1016 -0.1016,0.0339 -0.21801,0.0339 -0.0995,0 -0.17992,-0.0402 -0.0783,-0.0423 -0.11219,-0.091 0.0106,0.11853 0.0169,0.22013 0.008,0.1016 0.008,0.2032 z m 0.29211,-1.17898 q -0.0741,0 -0.12912,0.0254 -0.0529,0.0254 -0.0868,0.0698 -0.0339,0.0445 -0.0508,0.10583 -0.0148,0.0614 -0.0148,0.13335 0,0.0698 0.0127,0.13335 0.0148,0.0614 0.0466,0.10795 0.0318,0.0466 0.0847,0.0741 0.0529,0.0275 0.12912,0.0275 0.0593,0 0.1143,-0.0148 0.055,-0.0169 0.0974,-0.055 0.0444,-0.0381 0.0699,-0.1016 0.0275,-0.0635 0.0275,-0.15875 0,-0.0974 -0.0275,-0.16298 -0.0254,-0.0677 -0.0699,-0.10795 -0.0423,-0.0423 -0.0974,-0.0593 -0.0529,-0.0169 -0.10583,-0.0169 z"
               style="font-family:Sniglet;-inkscape-font-specification:'Sniglet Bold';fill:#000000"
               id="path79588" />
            <path
               d="m -107.23069,-531.61008 q 0.12065,0 0.2159,0.0381 0.0953,0.036 0.16087,0.10372 0.0677,0.0677 0.10371,0.1651 0.036,0.0974 0.036,0.21802 0,0.13335 -0.0423,0.23918 -0.0402,0.10583 -0.1143,0.17992 -0.072,0.0741 -0.17357,0.1143 -0.0995,0.0402 -0.21801,0.0402 -0.12912,0 -0.2286,-0.0444 -0.0974,-0.0444 -0.1651,-0.12065 -0.0656,-0.0762 -0.0995,-0.17568 -0.0339,-0.0995 -0.0339,-0.20955 0,-0.12065 0.0381,-0.22013 0.0402,-0.1016 0.11218,-0.17357 0.0741,-0.0741 0.1778,-0.1143 0.10372,-0.0402 0.23072,-0.0402 z m -0.0233,0.90382 q 0.0868,0 0.14817,-0.0296 0.0614,-0.0317 0.0995,-0.0825 0.0402,-0.0508 0.0572,-0.1143 0.019,-0.0656 0.019,-0.13547 0,-0.072 -0.019,-0.13335 -0.0169,-0.0635 -0.055,-0.11007 -0.036,-0.0466 -0.0952,-0.072 -0.0572,-0.0275 -0.13758,-0.0275 -0.0826,0 -0.14394,0.0275 -0.0614,0.0275 -0.10371,0.0762 -0.0402,0.0466 -0.0614,0.11218 -0.0212,0.0656 -0.0212,0.14182 0,0.15451 0.0783,0.25188 0.0804,0.0952 0.23495,0.0952 z"
               style="font-family:Sniglet;-inkscape-font-specification:'Sniglet Bold';fill:#000000"
               id="path79590" />
            <path
               d="m -106.36498,-530.67451 q -0.006,-0.13335 -0.008,-0.31538 0,-0.18415 0,-0.41699 -0.0212,0.002 -0.0508,0.002 -0.0275,0 -0.0444,0 -0.0381,0 -0.0699,-0.002 -0.0296,-0.002 -0.0529,-0.0127 -0.0233,-0.0106 -0.036,-0.0296 -0.0127,-0.0212 -0.0127,-0.0571 0,-0.1016 0.1524,-0.1016 0.0233,0 0.0572,0 0.0339,0 0.0571,0.004 0,-0.11218 0.004,-0.17991 0.004,-0.0677 0.0148,-0.10372 0.0127,-0.0381 0.0317,-0.0487 0.0212,-0.0127 0.0529,-0.0127 0.0339,0 0.055,0.0233 0.0212,0.0233 0.0318,0.0593 0.0127,0.036 0.0148,0.0804 0.004,0.0444 0.004,0.0868 0,0.0296 -0.002,0.055 0,0.0233 0,0.0423 0.0296,-0.008 0.0614,-0.008 0.0318,-0.002 0.0614,-0.002 0.0783,0 0.12065,0.0254 0.0423,0.0233 0.0423,0.0783 0,0.0339 -0.0148,0.055 -0.0148,0.019 -0.0402,0.0296 -0.0233,0.0106 -0.0572,0.0148 -0.0318,0.002 -0.0699,0.002 -0.0212,0 -0.0487,0 -0.0275,0 -0.0508,-0.004 0,0.11218 0,0.20532 0,0.0931 -0.002,0.17991 -0.002,0.0847 -0.004,0.16934 -0.002,0.0847 -0.006,0.17991 -0.002,0.0508 -0.0106,0.0783 -0.006,0.0275 -0.0191,0.0423 -0.0127,0.0148 -0.0296,0.019 -0.0148,0.002 -0.036,0.002 -0.0381,0 -0.0656,-0.0254 -0.0254,-0.0275 -0.0296,-0.1143 z"
               style="font-family:Sniglet;-inkscape-font-specification:'Sniglet Bold';fill:#000000"
               id="path79592" />
            <path
               d="m -104.83886,-530.52846 q -0.0339,0 -0.055,-0.0106 -0.0191,-0.0127 -0.0296,-0.0317 -0.0106,-0.019 -0.0148,-0.0444 -0.004,-0.0275 -0.006,-0.0571 -0.0529,0.0656 -0.13759,0.11006 -0.0825,0.0444 -0.21166,0.0444 -0.0825,0 -0.16934,-0.0233 -0.0847,-0.0254 -0.15451,-0.0847 -0.0699,-0.0614 -0.1143,-0.16298 -0.0444,-0.1016 -0.0444,-0.25612 0,-0.12065 0.0296,-0.22648 0.0296,-0.10583 0.0889,-0.18415 0.0614,-0.0804 0.1524,-0.127 0.091,-0.0466 0.21378,-0.0466 0.10795,0 0.19262,0.0402 0.0847,0.0381 0.1524,0.127 0,-0.0254 0.002,-0.0508 0.002,-0.0275 0.0106,-0.0487 0.0106,-0.0233 0.0318,-0.036 0.0212,-0.0148 0.0572,-0.0148 0.0317,0 0.0593,0.0254 0.0275,0.0254 0.0318,0.11006 0.006,0.11219 0.008,0.20109 0.004,0.0889 0.004,0.18415 0,0.11641 -0.002,0.21378 -0.002,0.0974 -0.0106,0.20743 -0.004,0.0487 -0.0127,0.0783 -0.006,0.0275 -0.0169,0.0423 -0.0106,0.0127 -0.0254,0.0169 -0.0148,0.004 -0.0296,0.004 z m -0.1143,-0.53763 q 0,-0.11007 -0.0339,-0.17992 -0.0318,-0.0699 -0.0825,-0.10795 -0.0487,-0.0402 -0.10583,-0.055 -0.0572,-0.0148 -0.10583,-0.0148 -0.0762,0 -0.13124,0.0275 -0.0529,0.0275 -0.0868,0.0762 -0.0339,0.0466 -0.0508,0.11218 -0.0148,0.0635 -0.0148,0.1397 0,0.18627 0.0804,0.27517 0.0826,0.0889 0.22225,0.0889 0.0825,0 0.1397,-0.0275 0.0593,-0.0296 0.0952,-0.0783 0.0381,-0.0487 0.055,-0.1143 0.0191,-0.0677 0.0191,-0.14181 z"
               style="font-family:Sniglet;-inkscape-font-specification:'Sniglet Bold';fill:#000000"
               id="path79594" />
            <path
               d="m -104.31181,-530.67451 q -0.006,-0.13335 -0.008,-0.31538 0,-0.18415 0,-0.41699 -0.0212,0.002 -0.0508,0.002 -0.0275,0 -0.0444,0 -0.0381,0 -0.0699,-0.002 -0.0296,-0.002 -0.0529,-0.0127 -0.0233,-0.0106 -0.036,-0.0296 -0.0127,-0.0212 -0.0127,-0.0571 0,-0.1016 0.1524,-0.1016 0.0233,0 0.0571,0 0.0339,0 0.0572,0.004 0,-0.11218 0.004,-0.17991 0.004,-0.0677 0.0148,-0.10372 0.0127,-0.0381 0.0318,-0.0487 0.0212,-0.0127 0.0529,-0.0127 0.0339,0 0.055,0.0233 0.0212,0.0233 0.0318,0.0593 0.0127,0.036 0.0148,0.0804 0.004,0.0444 0.004,0.0868 0,0.0296 -0.002,0.055 0,0.0233 0,0.0423 0.0296,-0.008 0.0614,-0.008 0.0318,-0.002 0.0614,-0.002 0.0783,0 0.12065,0.0254 0.0423,0.0233 0.0423,0.0783 0,0.0339 -0.0148,0.055 -0.0148,0.019 -0.0402,0.0296 -0.0233,0.0106 -0.0571,0.0148 -0.0318,0.002 -0.0699,0.002 -0.0212,0 -0.0487,0 -0.0275,0 -0.0508,-0.004 0,0.11218 0,0.20532 0,0.0931 -0.002,0.17991 -0.002,0.0847 -0.004,0.16934 -0.002,0.0847 -0.006,0.17991 -0.002,0.0508 -0.0106,0.0783 -0.006,0.0275 -0.0191,0.0423 -0.0127,0.0148 -0.0296,0.019 -0.0148,0.002 -0.036,0.002 -0.0381,0 -0.0656,-0.0254 -0.0254,-0.0275 -0.0296,-0.1143 z"
               style="font-family:Sniglet;-inkscape-font-specification:'Sniglet Bold';fill:#000000"
               id="path79596" />
            <path
               d="m -103.18574,-531.61008 q 0.12065,0 0.2159,0.0381 0.0953,0.036 0.16087,0.10372 0.0677,0.0677 0.10371,0.1651 0.036,0.0974 0.036,0.21802 0,0.13335 -0.0423,0.23918 -0.0402,0.10583 -0.1143,0.17992 -0.072,0.0741 -0.17356,0.1143 -0.0995,0.0402 -0.21802,0.0402 -0.12912,0 -0.2286,-0.0444 -0.0974,-0.0444 -0.1651,-0.12065 -0.0656,-0.0762 -0.0995,-0.17568 -0.0339,-0.0995 -0.0339,-0.20955 0,-0.12065 0.0381,-0.22013 0.0402,-0.1016 0.11218,-0.17357 0.0741,-0.0741 0.1778,-0.1143 0.10372,-0.0402 0.23072,-0.0402 z m -0.0233,0.90382 q 0.0868,0 0.14816,-0.0296 0.0614,-0.0317 0.0995,-0.0825 0.0402,-0.0508 0.0572,-0.1143 0.019,-0.0656 0.019,-0.13547 0,-0.072 -0.019,-0.13335 -0.0169,-0.0635 -0.055,-0.11007 -0.036,-0.0466 -0.0952,-0.072 -0.0572,-0.0275 -0.13758,-0.0275 -0.0826,0 -0.14393,0.0275 -0.0614,0.0275 -0.10372,0.0762 -0.0402,0.0466 -0.0614,0.11218 -0.0212,0.0656 -0.0212,0.14182 0,0.15451 0.0783,0.25188 0.0804,0.0952 0.23495,0.0952 z"
               style="font-family:Sniglet;-inkscape-font-specification:'Sniglet Bold';fill:#000000"
               id="path79598" />
          </g>
        </g>
      </g>
    </g>
  </g>
  <style
     type="text/css"
     id="style10296">
	.st0{fill:#75AADB;}
	.st1{fill:#4D4D4D;}
	.st2{fill:#FFFFFF;}
	.st3{fill:url(#SVGID_1_);}
	.st4{fill:url(#SVGID_2_);}
	.st5{fill:url(#SVGID_3_);}
	.st6{fill:url(#SVGID_4_);}
	.st7{fill:url(#SVGID_5_);}
	.st8{fill:url(#SVGID_6_);}
	.st9{fill:url(#SVGID_7_);}
	.st10{fill:url(#SVGID_8_);}
	.st11{fill:url(#SVGID_9_);}
	.st12{fill:url(#SVGID_10_);}
	.st13{opacity:0.18;fill:url(#SVGID_11_);}
	.st14{opacity:0.3;}
</style>
  <style
     type="text/css"
     id="style10296-3">
	.st0{fill:#75AADB;}
	.st1{fill:#4D4D4D;}
	.st2{fill:#FFFFFF;}
	.st3{fill:url(#SVGID_1_);}
	.st4{fill:url(#SVGID_2_);}
	.st5{fill:url(#SVGID_3_);}
	.st6{fill:url(#SVGID_4_);}
	.st7{fill:url(#SVGID_5_);}
	.st8{fill:url(#SVGID_6_);}
	.st9{fill:url(#SVGID_7_);}
	.st10{fill:url(#SVGID_8_);}
	.st11{fill:url(#SVGID_9_);}
	.st12{fill:url(#SVGID_10_);}
	.st13{opacity:0.18;fill:url(#SVGID_11_);}
	.st14{opacity:0.3;}
</style>
  <style
     type="text/css"
     id="style10296-7">
	.st0{fill:#75AADB;}
	.st1{fill:#4D4D4D;}
	.st2{fill:#FFFFFF;}
	.st3{fill:url(#SVGID_1_);}
	.st4{fill:url(#SVGID_2_);}
	.st5{fill:url(#SVGID_3_);}
	.st6{fill:url(#SVGID_4_);}
	.st7{fill:url(#SVGID_5_);}
	.st8{fill:url(#SVGID_6_);}
	.st9{fill:url(#SVGID_7_);}
	.st10{fill:url(#SVGID_8_);}
	.st11{fill:url(#SVGID_9_);}
	.st12{fill:url(#SVGID_10_);}
	.st13{opacity:0.18;fill:url(#SVGID_11_);}
	.st14{opacity:0.3;}
</style>
  <style
     type="text/css"
     id="style10296-4">
	.st0{fill:#75AADB;}
	.st1{fill:#4D4D4D;}
	.st2{fill:#FFFFFF;}
	.st3{fill:url(#SVGID_1_);}
	.st4{fill:url(#SVGID_2_);}
	.st5{fill:url(#SVGID_3_);}
	.st6{fill:url(#SVGID_4_);}
	.st7{fill:url(#SVGID_5_);}
	.st8{fill:url(#SVGID_6_);}
	.st9{fill:url(#SVGID_7_);}
	.st10{fill:url(#SVGID_8_);}
	.st11{fill:url(#SVGID_9_);}
	.st12{fill:url(#SVGID_10_);}
	.st13{opacity:0.18;fill:url(#SVGID_11_);}
	.st14{opacity:0.3;}
</style>
  <style
     type="text/css"
     id="style10296-9">
	.st0{fill:#75AADB;}
	.st1{fill:#4D4D4D;}
	.st2{fill:#FFFFFF;}
	.st3{fill:url(#SVGID_1_);}
	.st4{fill:url(#SVGID_2_);}
	.st5{fill:url(#SVGID_3_);}
	.st6{fill:url(#SVGID_4_);}
	.st7{fill:url(#SVGID_5_);}
	.st8{fill:url(#SVGID_6_);}
	.st9{fill:url(#SVGID_7_);}
	.st10{fill:url(#SVGID_8_);}
	.st11{fill:url(#SVGID_9_);}
	.st12{fill:url(#SVGID_10_);}
	.st13{opacity:0.18;fill:url(#SVGID_11_);}
	.st14{opacity:0.3;}
</style>
  <style
     type="text/css"
     id="style10296-2">
	.st0{fill:#75AADB;}
	.st1{fill:#4D4D4D;}
	.st2{fill:#FFFFFF;}
	.st3{fill:url(#SVGID_1_);}
	.st4{fill:url(#SVGID_2_);}
	.st5{fill:url(#SVGID_3_);}
	.st6{fill:url(#SVGID_4_);}
	.st7{fill:url(#SVGID_5_);}
	.st8{fill:url(#SVGID_6_);}
	.st9{fill:url(#SVGID_7_);}
	.st10{fill:url(#SVGID_8_);}
	.st11{fill:url(#SVGID_9_);}
	.st12{fill:url(#SVGID_10_);}
	.st13{opacity:0.18;fill:url(#SVGID_11_);}
	.st14{opacity:0.3;}
</style>
</svg>
