<?xml version="1.0" encoding="UTF-8" standalone="no"?>
<!-- Created with Inkscape (http://www.inkscape.org/) -->

<svg
   width="43.929592mm"
   height="50.831615mm"
   viewBox="0 0 43.929592 50.831615"
   version="1.1"
   id="svg5"
   inkscape:version="1.1.2 (0a00cf5339, 2022-02-04)"
   sodipodi:docname="logo.svg"
   xmlns:inkscape="http://www.inkscape.org/namespaces/inkscape"
   xmlns:sodipodi="http://sodipodi.sourceforge.net/DTD/sodipodi-0.dtd"
   xmlns:xlink="http://www.w3.org/1999/xlink"
   xmlns="http://www.w3.org/2000/svg"
   xmlns:svg="http://www.w3.org/2000/svg">
  <sodipodi:namedview
     id="namedview7"
     pagecolor="#ffffff"
     bordercolor="#000000"
     borderopacity="0.25"
     inkscape:pageshadow="2"
     inkscape:pageopacity="0.0"
     inkscape:pagecheckerboard="0"
     inkscape:document-units="mm"
     showgrid="false"
     showguides="true"
     inkscape:guide-bbox="true"
     inkscape:zoom="3.0756786"
     inkscape:cx="136.2301"
     inkscape:cy="87.948071"
     inkscape:window-width="1396"
     inkscape:window-height="970"
     inkscape:window-x="50"
     inkscape:window-y="0"
     inkscape:window-maximized="0"
     inkscape:current-layer="g17193"
     fit-margin-top="0"
     fit-margin-left="0"
     fit-margin-right="0"
     fit-margin-bottom="0">
    <sodipodi:guide
       position="12.717529,39.084416"
       orientation="0,-1"
       id="guide1005" />
    <sodipodi:guide
       position="22.353128,14.026527"
       orientation="0,-1"
       id="guide955" />
    <sodipodi:guide
       position="70.109863,40.852787"
       orientation="0,-1"
       id="guide1298" />
    <sodipodi:guide
       position="90.416647,12.008852"
       orientation="0,-1"
       id="guide1300" />
    <sodipodi:guide
       position="7.9568169,14.026528"
       orientation="1,0"
       id="guide14771" />
    <sodipodi:guide
       position="21.964573,0.62244323"
       orientation="1,0"
       id="guide15743" />
  </sodipodi:namedview>
  <defs
     id="defs2">
    <marker
       style="overflow:visible"
       id="TriangleOutM"
       refX="0.0"
       refY="0.0"
       orient="auto"
       inkscape:stockid="TriangleOutM"
       inkscape:isstock="true">
      <path
         transform="scale(0.4)"
         style="fill-rule:evenodd;fill:context-stroke;stroke:context-stroke;stroke-width:1.0pt"
         d="M 5.77,0.0 L -2.88,5.0 L -2.88,-5.0 L 5.77,0.0 z "
         id="path14568" />
    </marker>
    <inkscape:perspective
       sodipodi:type="inkscape:persp3d"
       inkscape:vp_x="0 : 389.7996 : 1"
       inkscape:vp_y="0 : 999.99992 : 0"
       inkscape:vp_z="1500 : 389.7996 : 1"
       inkscape:persp3d-origin="749.99998 : 95.754155 : 1"
       id="perspective4362" />
    <clipPath
       id="clp12">
      <path
         d="m 45.315,71.927 h 12.92 v 15.867 h -12.92 z"
         id="path184"
         inkscape:connector-curvature="0" />
    </clipPath>
    <clipPath
       id="clp21">
      <path
         d="m 123.91,72.178 h 26.23 v 15.294 h -26.23 z"
         id="path592"
         inkscape:connector-curvature="0" />
    </clipPath>
    <clipPath
       id="clp9">
      <path
         d="m 413.96,49.857 h 31.76 v 8.719 h -31.76 z"
         id="path100"
         inkscape:connector-curvature="0" />
    </clipPath>
    <inkscape:perspective
       sodipodi:type="inkscape:persp3d"
       inkscape:vp_x="0 : 389.7996 : 1"
       inkscape:vp_y="0 : 999.99992 : 0"
       inkscape:vp_z="1500 : 389.7996 : 1"
       inkscape:persp3d-origin="749.99998 : 95.754155 : 1"
       id="perspective4362-5" />
    <clipPath
       id="clp12-3">
      <path
         d="m 45.315,71.927 h 12.92 v 15.867 h -12.92 z"
         id="path184-5"
         inkscape:connector-curvature="0" />
    </clipPath>
    <clipPath
       id="clp21-6">
      <path
         d="m 123.91,72.178 h 26.23 v 15.294 h -26.23 z"
         id="path592-2"
         inkscape:connector-curvature="0" />
    </clipPath>
    <clipPath
       id="clp9-9">
      <path
         d="m 413.96,49.857 h 31.76 v 8.719 h -31.76 z"
         id="path100-1"
         inkscape:connector-curvature="0" />
    </clipPath>
    <inkscape:perspective
       sodipodi:type="inkscape:persp3d"
       inkscape:vp_x="0 : 635.96801 : 1"
       inkscape:vp_y="0 : 999.99996 : 0"
       inkscape:vp_z="1500 : 635.96801 : 1"
       inkscape:persp3d-origin="750 : 341.92255 : 1"
       id="perspective4362-9" />
    <clipPath
       id="clp12-37">
      <path
         d="m 45.315,71.927 h 12.92 v 15.867 h -12.92 z"
         id="path184-4"
         inkscape:connector-curvature="0" />
    </clipPath>
    <clipPath
       id="clp21-5">
      <path
         d="m 123.91,72.178 h 26.23 v 15.294 h -26.23 z"
         id="path592-25"
         inkscape:connector-curvature="0" />
    </clipPath>
    <clipPath
       id="clp9-4">
      <path
         d="m 413.96,49.857 h 31.76 v 8.719 h -31.76 z"
         id="path100-7"
         inkscape:connector-curvature="0" />
    </clipPath>
    <inkscape:perspective
       sodipodi:type="inkscape:persp3d"
       inkscape:vp_x="0 : 635.96801 : 1"
       inkscape:vp_y="0 : 999.99996 : 0"
       inkscape:vp_z="1500 : 635.96801 : 1"
       inkscape:persp3d-origin="750 : 341.92255 : 1"
       id="perspective4362-6" />
    <clipPath
       id="clp12-8">
      <path
         d="m 45.315,71.927 h 12.92 v 15.867 h -12.92 z"
         id="path184-9"
         inkscape:connector-curvature="0" />
    </clipPath>
    <clipPath
       id="clp21-2">
      <path
         d="m 123.91,72.178 h 26.23 v 15.294 h -26.23 z"
         id="path592-6"
         inkscape:connector-curvature="0" />
    </clipPath>
    <clipPath
       id="clp9-6">
      <path
         d="m 413.96,49.857 h 31.76 v 8.719 h -31.76 z"
         id="path100-4"
         inkscape:connector-curvature="0" />
    </clipPath>
    <inkscape:perspective
       sodipodi:type="inkscape:persp3d"
       inkscape:vp_x="0 : 635.96801 : 1"
       inkscape:vp_y="0 : 999.99996 : 0"
       inkscape:vp_z="1500 : 635.96801 : 1"
       inkscape:persp3d-origin="750 : 341.92255 : 1"
       id="perspective4362-53" />
    <clipPath
       id="clp12-5">
      <path
         d="m 45.315,71.927 h 12.92 v 15.867 h -12.92 z"
         id="path184-6"
         inkscape:connector-curvature="0" />
    </clipPath>
    <clipPath
       id="clp21-29">
      <path
         d="m 123.91,72.178 h 26.23 v 15.294 h -26.23 z"
         id="path592-1"
         inkscape:connector-curvature="0" />
    </clipPath>
    <clipPath
       id="clp9-2">
      <path
         d="m 413.96,49.857 h 31.76 v 8.719 h -31.76 z"
         id="path100-70"
         inkscape:connector-curvature="0" />
    </clipPath>
    <inkscape:perspective
       sodipodi:type="inkscape:persp3d"
       inkscape:vp_x="0 : 635.96801 : 1"
       inkscape:vp_y="0 : 999.99996 : 0"
       inkscape:vp_z="1500 : 635.96801 : 1"
       inkscape:persp3d-origin="750 : 341.92255 : 1"
       id="perspective4362-5356" />
    <clipPath
       id="clp12-2">
      <path
         d="m 45.315,71.927 h 12.92 v 15.867 h -12.92 z"
         id="path184-91"
         inkscape:connector-curvature="0" />
    </clipPath>
    <clipPath
       id="clp21-27">
      <path
         d="m 123.91,72.178 h 26.23 v 15.294 h -26.23 z"
         id="path592-0"
         inkscape:connector-curvature="0" />
    </clipPath>
    <clipPath
       id="clp9-93">
      <path
         d="m 413.96,49.857 h 31.76 v 8.719 h -31.76 z"
         id="path100-6"
         inkscape:connector-curvature="0" />
    </clipPath>
    <inkscape:perspective
       sodipodi:type="inkscape:persp3d"
       inkscape:vp_x="0 : 389.7996 : 1"
       inkscape:vp_y="0 : 999.99992 : 0"
       inkscape:vp_z="1500 : 389.7996 : 1"
       inkscape:persp3d-origin="749.99998 : 95.754155 : 1"
       id="perspective4362-535" />
    <clipPath
       id="clp12-6">
      <path
         d="m 45.315,71.927 h 12.92 v 15.867 h -12.92 z"
         id="path184-2"
         inkscape:connector-curvature="0" />
    </clipPath>
    <clipPath
       id="clp21-9">
      <path
         d="m 123.91,72.178 h 26.23 v 15.294 h -26.23 z"
         id="path592-12"
         inkscape:connector-curvature="0" />
    </clipPath>
    <clipPath
       id="clp9-7">
      <path
         d="m 413.96,49.857 h 31.76 v 8.719 h -31.76 z"
         id="path100-0"
         inkscape:connector-curvature="0" />
    </clipPath>
    <inkscape:perspective
       sodipodi:type="inkscape:persp3d"
       inkscape:vp_x="0 : 389.7996 : 1"
       inkscape:vp_y="0 : 999.99992 : 0"
       inkscape:vp_z="1500 : 389.7996 : 1"
       inkscape:persp3d-origin="749.99998 : 95.754155 : 1"
       id="perspective4362-5-0" />
    <clipPath
       id="clp12-3-6">
      <path
         d="m 45.315,71.927 h 12.92 v 15.867 h -12.92 z"
         id="path184-5-2"
         inkscape:connector-curvature="0" />
    </clipPath>
    <clipPath
       id="clp21-6-6">
      <path
         d="m 123.91,72.178 h 26.23 v 15.294 h -26.23 z"
         id="path592-2-1"
         inkscape:connector-curvature="0" />
    </clipPath>
    <clipPath
       id="clp9-9-8">
      <path
         d="m 413.96,49.857 h 31.76 v 8.719 h -31.76 z"
         id="path100-1-7"
         inkscape:connector-curvature="0" />
    </clipPath>
    <inkscape:perspective
       sodipodi:type="inkscape:persp3d"
       inkscape:vp_x="0 : 635.96801 : 1"
       inkscape:vp_y="0 : 999.99996 : 0"
       inkscape:vp_z="1500 : 635.96801 : 1"
       inkscape:persp3d-origin="750 : 341.92255 : 1"
       id="perspective4362-9-9" />
    <clipPath
       id="clp12-37-2">
      <path
         d="m 45.315,71.927 h 12.92 v 15.867 h -12.92 z"
         id="path184-4-0"
         inkscape:connector-curvature="0" />
    </clipPath>
    <clipPath
       id="clp21-5-2">
      <path
         d="m 123.91,72.178 h 26.23 v 15.294 h -26.23 z"
         id="path592-25-3"
         inkscape:connector-curvature="0" />
    </clipPath>
    <clipPath
       id="clp9-4-7">
      <path
         d="m 413.96,49.857 h 31.76 v 8.719 h -31.76 z"
         id="path100-7-5"
         inkscape:connector-curvature="0" />
    </clipPath>
    <inkscape:perspective
       sodipodi:type="inkscape:persp3d"
       inkscape:vp_x="0 : 635.96801 : 1"
       inkscape:vp_y="0 : 999.99996 : 0"
       inkscape:vp_z="1500 : 635.96801 : 1"
       inkscape:persp3d-origin="750 : 341.92255 : 1"
       id="perspective4362-6-9" />
    <clipPath
       id="clp12-8-2">
      <path
         d="m 45.315,71.927 h 12.92 v 15.867 h -12.92 z"
         id="path184-9-2"
         inkscape:connector-curvature="0" />
    </clipPath>
    <clipPath
       id="clp21-2-8">
      <path
         d="m 123.91,72.178 h 26.23 v 15.294 h -26.23 z"
         id="path592-6-9"
         inkscape:connector-curvature="0" />
    </clipPath>
    <clipPath
       id="clp9-6-7">
      <path
         d="m 413.96,49.857 h 31.76 v 8.719 h -31.76 z"
         id="path100-4-3"
         inkscape:connector-curvature="0" />
    </clipPath>
    <inkscape:perspective
       sodipodi:type="inkscape:persp3d"
       inkscape:vp_x="0 : 635.96801 : 1"
       inkscape:vp_y="0 : 999.99996 : 0"
       inkscape:vp_z="1500 : 635.96801 : 1"
       inkscape:persp3d-origin="750 : 341.92255 : 1"
       id="perspective4362-53-6" />
    <clipPath
       id="clp12-5-1">
      <path
         d="m 45.315,71.927 h 12.92 v 15.867 h -12.92 z"
         id="path184-6-2"
         inkscape:connector-curvature="0" />
    </clipPath>
    <clipPath
       id="clp21-29-9">
      <path
         d="m 123.91,72.178 h 26.23 v 15.294 h -26.23 z"
         id="path592-1-3"
         inkscape:connector-curvature="0" />
    </clipPath>
    <clipPath
       id="clp9-2-1">
      <path
         d="m 413.96,49.857 h 31.76 v 8.719 h -31.76 z"
         id="path100-70-9"
         inkscape:connector-curvature="0" />
    </clipPath>
    <g
       id="g6922">
      <symbol
         overflow="visible"
         id="symbol5753">
        <path
           style="stroke:none;"
           d=""
           id="path605" />
      </symbol>
      <symbol
         overflow="visible"
         id="symbol8636">
        <path
           style="stroke:none;"
           d="M 1.78125 -1.140625 C 1.390625 -0.484375 1 -0.34375 0.5625 -0.3125 C 0.4375 -0.296875 0.34375 -0.296875 0.34375 -0.109375 C 0.34375 -0.046875 0.40625 0 0.484375 0 C 0.75 0 1.0625 -0.03125 1.328125 -0.03125 C 1.671875 -0.03125 2.015625 0 2.328125 0 C 2.390625 0 2.515625 0 2.515625 -0.1875 C 2.515625 -0.296875 2.4375 -0.3125 2.359375 -0.3125 C 2.140625 -0.328125 1.890625 -0.40625 1.890625 -0.65625 C 1.890625 -0.78125 1.953125 -0.890625 2.03125 -1.03125 L 2.796875 -2.296875 L 5.296875 -2.296875 C 5.3125 -2.09375 5.453125 -0.734375 5.453125 -0.640625 C 5.453125 -0.34375 4.9375 -0.3125 4.734375 -0.3125 C 4.59375 -0.3125 4.5 -0.3125 4.5 -0.109375 C 4.5 0 4.609375 0 4.640625 0 C 5.046875 0 5.46875 -0.03125 5.875 -0.03125 C 6.125 -0.03125 6.765625 0 7.015625 0 C 7.0625 0 7.1875 0 7.1875 -0.203125 C 7.1875 -0.3125 7.09375 -0.3125 6.953125 -0.3125 C 6.34375 -0.3125 6.34375 -0.375 6.3125 -0.671875 L 5.703125 -6.890625 C 5.6875 -7.09375 5.6875 -7.140625 5.515625 -7.140625 C 5.359375 -7.140625 5.3125 -7.0625 5.25 -6.96875 Z M 2.984375 -2.609375 L 4.9375 -5.90625 L 5.265625 -2.609375 Z M 2.984375 -2.609375 "
           id="path649" />
      </symbol>
      <symbol
         overflow="visible"
         id="symbol1185">
        <path
           style="stroke:none;"
           d="M 3.328125 -3.015625 C 3.390625 -3.265625 3.625 -4.1875 4.3125 -4.1875 C 4.359375 -4.1875 4.609375 -4.1875 4.8125 -4.0625 C 4.53125 -4 4.34375 -3.765625 4.34375 -3.515625 C 4.34375 -3.359375 4.453125 -3.171875 4.71875 -3.171875 C 4.9375 -3.171875 5.25 -3.34375 5.25 -3.75 C 5.25 -4.265625 4.671875 -4.40625 4.328125 -4.40625 C 3.75 -4.40625 3.40625 -3.875 3.28125 -3.65625 C 3.03125 -4.3125 2.5 -4.40625 2.203125 -4.40625 C 1.171875 -4.40625 0.59375 -3.125 0.59375 -2.875 C 0.59375 -2.765625 0.703125 -2.765625 0.71875 -2.765625 C 0.796875 -2.765625 0.828125 -2.796875 0.84375 -2.875 C 1.1875 -3.9375 1.84375 -4.1875 2.1875 -4.1875 C 2.375 -4.1875 2.71875 -4.09375 2.71875 -3.515625 C 2.71875 -3.203125 2.546875 -2.546875 2.1875 -1.140625 C 2.03125 -0.53125 1.671875 -0.109375 1.234375 -0.109375 C 1.171875 -0.109375 0.953125 -0.109375 0.734375 -0.234375 C 0.984375 -0.296875 1.203125 -0.5 1.203125 -0.78125 C 1.203125 -1.046875 0.984375 -1.125 0.84375 -1.125 C 0.53125 -1.125 0.296875 -0.875 0.296875 -0.546875 C 0.296875 -0.09375 0.78125 0.109375 1.21875 0.109375 C 1.890625 0.109375 2.25 -0.59375 2.265625 -0.640625 C 2.390625 -0.28125 2.75 0.109375 3.34375 0.109375 C 4.375 0.109375 4.9375 -1.171875 4.9375 -1.421875 C 4.9375 -1.53125 4.859375 -1.53125 4.828125 -1.53125 C 4.734375 -1.53125 4.71875 -1.484375 4.6875 -1.421875 C 4.359375 -0.34375 3.6875 -0.109375 3.375 -0.109375 C 2.984375 -0.109375 2.828125 -0.421875 2.828125 -0.765625 C 2.828125 -0.984375 2.875 -1.203125 2.984375 -1.640625 Z M 3.328125 -3.015625 "
           id="path8161" />
      </symbol>
      <symbol
         overflow="visible"
         id="symbol7263">
        <path
           style="stroke:none;"
           d="M 2.046875 -3.984375 L 2.984375 -3.984375 C 3.1875 -3.984375 3.296875 -3.984375 3.296875 -4.1875 C 3.296875 -4.296875 3.1875 -4.296875 3.015625 -4.296875 L 2.140625 -4.296875 C 2.5 -5.71875 2.546875 -5.90625 2.546875 -5.96875 C 2.546875 -6.140625 2.421875 -6.234375 2.25 -6.234375 C 2.21875 -6.234375 1.9375 -6.234375 1.859375 -5.875 L 1.46875 -4.296875 L 0.53125 -4.296875 C 0.328125 -4.296875 0.234375 -4.296875 0.234375 -4.109375 C 0.234375 -3.984375 0.3125 -3.984375 0.515625 -3.984375 L 1.390625 -3.984375 C 0.671875 -1.15625 0.625 -0.984375 0.625 -0.8125 C 0.625 -0.265625 1 0.109375 1.546875 0.109375 C 2.5625 0.109375 3.125 -1.34375 3.125 -1.421875 C 3.125 -1.53125 3.046875 -1.53125 3.015625 -1.53125 C 2.921875 -1.53125 2.90625 -1.5 2.859375 -1.390625 C 2.4375 -0.34375 1.90625 -0.109375 1.5625 -0.109375 C 1.359375 -0.109375 1.25 -0.234375 1.25 -0.5625 C 1.25 -0.8125 1.28125 -0.875 1.3125 -1.046875 Z M 2.046875 -3.984375 "
           id="path8824" />
      </symbol>
      <symbol
         overflow="visible"
         id="symbol9076">
        <path
           style="stroke:none;"
           d=""
           id="path721" />
      </symbol>
      <symbol
         overflow="visible"
         id="symbol9956">
        <path
           style="stroke:none;"
           d="M 6.84375 -3.265625 C 7 -3.265625 7.1875 -3.265625 7.1875 -3.453125 C 7.1875 -3.65625 7 -3.65625 6.859375 -3.65625 L 0.890625 -3.65625 C 0.75 -3.65625 0.5625 -3.65625 0.5625 -3.453125 C 0.5625 -3.265625 0.75 -3.265625 0.890625 -3.265625 Z M 6.859375 -1.328125 C 7 -1.328125 7.1875 -1.328125 7.1875 -1.53125 C 7.1875 -1.71875 7 -1.71875 6.84375 -1.71875 L 0.890625 -1.71875 C 0.75 -1.71875 0.5625 -1.71875 0.5625 -1.53125 C 0.5625 -1.328125 0.75 -1.328125 0.890625 -1.328125 Z M 6.859375 -1.328125 "
           id="path383" />
      </symbol>
    </g>
    <g
       id="g3383">
      <symbol
         overflow="visible"
         id="symbol3729">
        <path
           style="stroke:none;"
           d=""
           id="path4741" />
      </symbol>
      <symbol
         overflow="visible"
         id="symbol848">
        <path
           style="stroke:none;"
           d="M 1.78125 -1.140625 C 1.390625 -0.484375 1 -0.34375 0.5625 -0.3125 C 0.4375 -0.296875 0.34375 -0.296875 0.34375 -0.109375 C 0.34375 -0.046875 0.40625 0 0.484375 0 C 0.75 0 1.0625 -0.03125 1.328125 -0.03125 C 1.671875 -0.03125 2.015625 0 2.328125 0 C 2.390625 0 2.515625 0 2.515625 -0.1875 C 2.515625 -0.296875 2.4375 -0.3125 2.359375 -0.3125 C 2.140625 -0.328125 1.890625 -0.40625 1.890625 -0.65625 C 1.890625 -0.78125 1.953125 -0.890625 2.03125 -1.03125 L 2.796875 -2.296875 L 5.296875 -2.296875 C 5.3125 -2.09375 5.453125 -0.734375 5.453125 -0.640625 C 5.453125 -0.34375 4.9375 -0.3125 4.734375 -0.3125 C 4.59375 -0.3125 4.5 -0.3125 4.5 -0.109375 C 4.5 0 4.609375 0 4.640625 0 C 5.046875 0 5.46875 -0.03125 5.875 -0.03125 C 6.125 -0.03125 6.765625 0 7.015625 0 C 7.0625 0 7.1875 0 7.1875 -0.203125 C 7.1875 -0.3125 7.09375 -0.3125 6.953125 -0.3125 C 6.34375 -0.3125 6.34375 -0.375 6.3125 -0.671875 L 5.703125 -6.890625 C 5.6875 -7.09375 5.6875 -7.140625 5.515625 -7.140625 C 5.359375 -7.140625 5.3125 -7.0625 5.25 -6.96875 Z M 2.984375 -2.609375 L 4.9375 -5.90625 L 5.265625 -2.609375 Z M 2.984375 -2.609375 "
           id="path7386" />
      </symbol>
      <symbol
         overflow="visible"
         id="symbol533">
        <path
           style="stroke:none;"
           d="M 3.328125 -3.015625 C 3.390625 -3.265625 3.625 -4.1875 4.3125 -4.1875 C 4.359375 -4.1875 4.609375 -4.1875 4.8125 -4.0625 C 4.53125 -4 4.34375 -3.765625 4.34375 -3.515625 C 4.34375 -3.359375 4.453125 -3.171875 4.71875 -3.171875 C 4.9375 -3.171875 5.25 -3.34375 5.25 -3.75 C 5.25 -4.265625 4.671875 -4.40625 4.328125 -4.40625 C 3.75 -4.40625 3.40625 -3.875 3.28125 -3.65625 C 3.03125 -4.3125 2.5 -4.40625 2.203125 -4.40625 C 1.171875 -4.40625 0.59375 -3.125 0.59375 -2.875 C 0.59375 -2.765625 0.703125 -2.765625 0.71875 -2.765625 C 0.796875 -2.765625 0.828125 -2.796875 0.84375 -2.875 C 1.1875 -3.9375 1.84375 -4.1875 2.1875 -4.1875 C 2.375 -4.1875 2.71875 -4.09375 2.71875 -3.515625 C 2.71875 -3.203125 2.546875 -2.546875 2.1875 -1.140625 C 2.03125 -0.53125 1.671875 -0.109375 1.234375 -0.109375 C 1.171875 -0.109375 0.953125 -0.109375 0.734375 -0.234375 C 0.984375 -0.296875 1.203125 -0.5 1.203125 -0.78125 C 1.203125 -1.046875 0.984375 -1.125 0.84375 -1.125 C 0.53125 -1.125 0.296875 -0.875 0.296875 -0.546875 C 0.296875 -0.09375 0.78125 0.109375 1.21875 0.109375 C 1.890625 0.109375 2.25 -0.59375 2.265625 -0.640625 C 2.390625 -0.28125 2.75 0.109375 3.34375 0.109375 C 4.375 0.109375 4.9375 -1.171875 4.9375 -1.421875 C 4.9375 -1.53125 4.859375 -1.53125 4.828125 -1.53125 C 4.734375 -1.53125 4.71875 -1.484375 4.6875 -1.421875 C 4.359375 -0.34375 3.6875 -0.109375 3.375 -0.109375 C 2.984375 -0.109375 2.828125 -0.421875 2.828125 -0.765625 C 2.828125 -0.984375 2.875 -1.203125 2.984375 -1.640625 Z M 3.328125 -3.015625 "
           id="path4289" />
      </symbol>
      <symbol
         overflow="visible"
         id="symbol358">
        <path
           style="stroke:none;"
           d="M 3.5625 -2.90625 C 3.96875 -1.859375 4.453125 -0.34375 4.609375 -0.109375 C 4.765625 0.109375 4.859375 0.109375 5.140625 0.109375 L 5.359375 0.109375 C 5.453125 0.09375 5.46875 0.046875 5.46875 0.015625 C 5.46875 -0.015625 5.4375 -0.046875 5.40625 -0.078125 C 5.3125 -0.1875 5.25 -0.34375 5.1875 -0.53125 L 3.15625 -6.203125 C 2.9375 -6.78125 2.40625 -6.921875 1.9375 -6.921875 C 1.890625 -6.921875 1.75 -6.921875 1.75 -6.8125 C 1.75 -6.734375 1.828125 -6.703125 1.84375 -6.703125 C 2.171875 -6.65625 2.25 -6.59375 2.5 -5.90625 L 3.453125 -3.203125 L 0.703125 -0.46875 C 0.59375 -0.34375 0.53125 -0.296875 0.53125 -0.15625 C 0.53125 0.015625 0.671875 0.125 0.828125 0.125 C 0.984375 0.125 1.078125 0.015625 1.15625 -0.078125 Z M 3.5625 -2.90625 "
           id="path941" />
      </symbol>
      <symbol
         overflow="visible"
         id="symbol5840">
        <path
           style="stroke:none;"
           d=""
           id="path5263" />
      </symbol>
      <symbol
         overflow="visible"
         id="symbol9708">
        <path
           style="stroke:none;"
           d="M 6.84375 -3.265625 C 7 -3.265625 7.1875 -3.265625 7.1875 -3.453125 C 7.1875 -3.65625 7 -3.65625 6.859375 -3.65625 L 0.890625 -3.65625 C 0.75 -3.65625 0.5625 -3.65625 0.5625 -3.453125 C 0.5625 -3.265625 0.75 -3.265625 0.890625 -3.265625 Z M 6.859375 -1.328125 C 7 -1.328125 7.1875 -1.328125 7.1875 -1.53125 C 7.1875 -1.71875 7 -1.71875 6.84375 -1.71875 L 0.890625 -1.71875 C 0.75 -1.71875 0.5625 -1.71875 0.5625 -1.53125 C 0.5625 -1.328125 0.75 -1.328125 0.890625 -1.328125 Z M 6.859375 -1.328125 "
           id="path3735" />
      </symbol>
    </g>
    <g
       id="g3650">
      <symbol
         overflow="visible"
         id="symbol7459">
        <path
           style="stroke:none;"
           d=""
           id="path9605" />
      </symbol>
      <symbol
         overflow="visible"
         id="symbol2474">
        <path
           style="stroke:none;"
           d="M 1.109375 -2.515625 C 1.171875 -4 2.015625 -4.25 2.359375 -4.25 C 3.375 -4.25 3.484375 -2.90625 3.484375 -2.515625 Z M 1.109375 -2.296875 L 3.890625 -2.296875 C 4.109375 -2.296875 4.140625 -2.296875 4.140625 -2.515625 C 4.140625 -3.5 3.59375 -4.46875 2.359375 -4.46875 C 1.203125 -4.46875 0.28125 -3.4375 0.28125 -2.1875 C 0.28125 -0.859375 1.328125 0.109375 2.46875 0.109375 C 3.6875 0.109375 4.140625 -1 4.140625 -1.1875 C 4.140625 -1.28125 4.0625 -1.3125 4 -1.3125 C 3.921875 -1.3125 3.890625 -1.25 3.875 -1.171875 C 3.53125 -0.140625 2.625 -0.140625 2.53125 -0.140625 C 2.03125 -0.140625 1.640625 -0.4375 1.40625 -0.8125 C 1.109375 -1.28125 1.109375 -1.9375 1.109375 -2.296875 Z M 1.109375 -2.296875 "
           id="path3428" />
      </symbol>
      <symbol
         overflow="visible"
         id="symbol1508">
        <path
           style="stroke:none;"
           d="M 1.765625 -4.40625 L 0.375 -4.296875 L 0.375 -3.984375 C 1.015625 -3.984375 1.109375 -3.921875 1.109375 -3.4375 L 1.109375 -0.75 C 1.109375 -0.3125 1 -0.3125 0.328125 -0.3125 L 0.328125 0 C 0.640625 -0.015625 1.1875 -0.03125 1.421875 -0.03125 C 1.78125 -0.03125 2.125 -0.015625 2.46875 0 L 2.46875 -0.3125 C 1.796875 -0.3125 1.765625 -0.359375 1.765625 -0.75 Z M 1.796875 -6.140625 C 1.796875 -6.453125 1.5625 -6.671875 1.28125 -6.671875 C 0.96875 -6.671875 0.75 -6.40625 0.75 -6.140625 C 0.75 -5.875 0.96875 -5.609375 1.28125 -5.609375 C 1.5625 -5.609375 1.796875 -5.828125 1.796875 -6.140625 Z M 1.796875 -6.140625 "
           id="path2085" />
      </symbol>
      <symbol
         overflow="visible"
         id="symbol5763">
        <path
           style="stroke:none;"
           d="M 2.21875 -1.71875 C 1.34375 -1.71875 1.34375 -2.71875 1.34375 -2.9375 C 1.34375 -3.203125 1.359375 -3.53125 1.5 -3.78125 C 1.578125 -3.890625 1.8125 -4.171875 2.21875 -4.171875 C 3.078125 -4.171875 3.078125 -3.1875 3.078125 -2.953125 C 3.078125 -2.6875 3.078125 -2.359375 2.921875 -2.109375 C 2.84375 -2 2.609375 -1.71875 2.21875 -1.71875 Z M 1.0625 -1.328125 C 1.0625 -1.359375 1.0625 -1.59375 1.21875 -1.796875 C 1.609375 -1.515625 2.03125 -1.484375 2.21875 -1.484375 C 3.140625 -1.484375 3.828125 -2.171875 3.828125 -2.9375 C 3.828125 -3.3125 3.671875 -3.671875 3.421875 -3.90625 C 3.78125 -4.25 4.140625 -4.296875 4.3125 -4.296875 C 4.34375 -4.296875 4.390625 -4.296875 4.421875 -4.28125 C 4.3125 -4.25 4.25 -4.140625 4.25 -4.015625 C 4.25 -3.84375 4.390625 -3.734375 4.546875 -3.734375 C 4.640625 -3.734375 4.828125 -3.796875 4.828125 -4.03125 C 4.828125 -4.203125 4.71875 -4.515625 4.328125 -4.515625 C 4.125 -4.515625 3.6875 -4.453125 3.265625 -4.046875 C 2.84375 -4.375 2.4375 -4.40625 2.21875 -4.40625 C 1.28125 -4.40625 0.59375 -3.71875 0.59375 -2.953125 C 0.59375 -2.515625 0.8125 -2.140625 1.0625 -1.921875 C 0.9375 -1.78125 0.75 -1.453125 0.75 -1.09375 C 0.75 -0.78125 0.890625 -0.40625 1.203125 -0.203125 C 0.59375 -0.046875 0.28125 0.390625 0.28125 0.78125 C 0.28125 1.5 1.265625 2.046875 2.484375 2.046875 C 3.65625 2.046875 4.6875 1.546875 4.6875 0.765625 C 4.6875 0.421875 4.5625 -0.09375 4.046875 -0.375 C 3.515625 -0.640625 2.9375 -0.640625 2.328125 -0.640625 C 2.078125 -0.640625 1.65625 -0.640625 1.578125 -0.65625 C 1.265625 -0.703125 1.0625 -1 1.0625 -1.328125 Z M 2.5 1.828125 C 1.484375 1.828125 0.796875 1.3125 0.796875 0.78125 C 0.796875 0.328125 1.171875 -0.046875 1.609375 -0.0625 L 2.203125 -0.0625 C 3.0625 -0.0625 4.171875 -0.0625 4.171875 0.78125 C 4.171875 1.328125 3.46875 1.828125 2.5 1.828125 Z M 2.5 1.828125 "
           id="path5738" />
      </symbol>
      <symbol
         overflow="visible"
         id="symbol1084">
        <path
           style="stroke:none;"
           d="M 1.09375 -3.421875 L 1.09375 -0.75 C 1.09375 -0.3125 0.984375 -0.3125 0.3125 -0.3125 L 0.3125 0 C 0.671875 -0.015625 1.171875 -0.03125 1.453125 -0.03125 C 1.703125 -0.03125 2.21875 -0.015625 2.5625 0 L 2.5625 -0.3125 C 1.890625 -0.3125 1.78125 -0.3125 1.78125 -0.75 L 1.78125 -2.59375 C 1.78125 -3.625 2.5 -4.1875 3.125 -4.1875 C 3.765625 -4.1875 3.875 -3.65625 3.875 -3.078125 L 3.875 -0.75 C 3.875 -0.3125 3.765625 -0.3125 3.09375 -0.3125 L 3.09375 0 C 3.4375 -0.015625 3.953125 -0.03125 4.21875 -0.03125 C 4.46875 -0.03125 5 -0.015625 5.328125 0 L 5.328125 -0.3125 C 4.8125 -0.3125 4.5625 -0.3125 4.5625 -0.609375 L 4.5625 -2.515625 C 4.5625 -3.375 4.5625 -3.671875 4.25 -4.03125 C 4.109375 -4.203125 3.78125 -4.40625 3.203125 -4.40625 C 2.46875 -4.40625 2 -3.984375 1.71875 -3.359375 L 1.71875 -4.40625 L 0.3125 -4.296875 L 0.3125 -3.984375 C 1.015625 -3.984375 1.09375 -3.921875 1.09375 -3.421875 Z M 1.09375 -3.421875 "
           id="path6371" />
      </symbol>
    </g>
    <g
       id="g1219">
      <symbol
         overflow="visible"
         id="symbol6972">
        <path
           style="stroke:none;"
           d=""
           id="path2567" />
      </symbol>
      <symbol
         overflow="visible"
         id="symbol9951">
        <path
           style="stroke:none;"
           d="M 4.296875 -2.140625 C 4.53125 -2.140625 4.78125 -2.140625 4.78125 -2.59375 C 4.78125 -3.875 4.171875 -4.734375 2.6875 -4.734375 C 1.09375 -4.734375 0.3125 -3.84375 0.3125 -2.328125 C 0.3125 -0.6875 1.25 0.109375 2.828125 0.109375 C 3.203125 0.109375 3.765625 0.0625 4.421875 -0.265625 C 4.640625 -0.375 4.71875 -0.40625 4.71875 -0.53125 C 4.71875 -0.59375 4.6875 -0.890625 4.671875 -0.96875 C 4.640625 -1.28125 4.625 -1.28125 4.53125 -1.28125 C 4.5 -1.28125 4.46875 -1.28125 4.359375 -1.1875 C 3.78125 -0.671875 3.1875 -0.609375 2.859375 -0.609375 C 1.734375 -0.609375 1.609375 -1.5 1.578125 -2.140625 Z M 1.59375 -2.65625 C 1.625 -3.265625 1.828125 -4.015625 2.6875 -4.015625 C 3.484375 -4.015625 3.640625 -3.4375 3.671875 -2.65625 Z M 1.59375 -2.65625 "
           id="path8921" />
      </symbol>
      <symbol
         overflow="visible"
         id="symbol1600">
        <path
           style="stroke:none;"
           d="M 1.015625 -6.921875 C 0.703125 -6.921875 0.53125 -6.875 0.53125 -6.46875 L 0.53125 -6.015625 C 0.53125 -5.6875 0.640625 -5.5625 1 -5.5625 L 1.53125 -5.5625 C 2 -5.5625 2 -5.765625 2 -6.234375 C 2 -6.71875 2 -6.921875 1.53125 -6.921875 Z M 1.9375 -4.09375 C 1.9375 -4.40625 1.859375 -4.5625 1.453125 -4.5625 L 1.09375 -4.5625 C 0.734375 -4.5625 0.609375 -4.453125 0.609375 -4.09375 L 0.609375 -0.484375 C 0.609375 -0.125 0.71875 0 1.09375 0 L 1.453125 0 C 1.828125 0 1.9375 -0.125 1.9375 -0.484375 Z M 1.9375 -4.09375 "
           id="path3959" />
      </symbol>
      <symbol
         overflow="visible"
         id="symbol7915">
        <path
           style="stroke:none;"
           d="M 2 -0.921875 C 1.640625 -0.921875 1.5 -0.921875 1.359375 -1.03125 C 1.3125 -1.078125 1.140625 -1.21875 1.140625 -1.484375 C 1.140625 -1.5625 1.15625 -1.578125 1.171875 -1.640625 C 1.640625 -1.375 2.21875 -1.375 2.4375 -1.375 C 2.84375 -1.375 4.4375 -1.375 4.4375 -3.015625 C 4.4375 -3.59375 4.21875 -3.953125 4.125 -4.0625 C 4.296875 -4.0625 4.640625 -4.0625 5.046875 -3.953125 C 5.09375 -3.921875 5.15625 -3.90625 5.1875 -3.90625 C 5.28125 -3.90625 5.328125 -3.96875 5.328125 -4.03125 C 5.328125 -4.078125 5.28125 -4.3125 5.25 -4.421875 C 5.21875 -4.65625 5.21875 -4.671875 5.03125 -4.671875 C 4.71875 -4.671875 4.234375 -4.5625 3.84375 -4.328125 C 3.375 -4.640625 2.859375 -4.671875 2.4375 -4.671875 C 2.015625 -4.671875 0.421875 -4.671875 0.421875 -3.03125 C 0.421875 -2.625 0.53125 -2.140625 0.921875 -1.796875 C 0.640625 -1.4375 0.640625 -1.046875 0.640625 -1 C 0.640625 -0.8125 0.703125 -0.484375 0.921875 -0.203125 C 0.765625 -0.15625 0.25 0.03125 0.25 0.671875 C 0.25 0.984375 0.40625 1.5 1.03125 1.78125 C 1.59375 2.046875 2.265625 2.046875 2.734375 2.046875 C 3.3125 2.046875 5.21875 2.046875 5.21875 0.640625 C 5.21875 -0.921875 3.8125 -0.921875 2.46875 -0.921875 Z M 2.4375 -2.09375 C 1.734375 -2.09375 1.703125 -2.46875 1.703125 -3.015625 C 1.703125 -3.5625 1.734375 -3.953125 2.4375 -3.953125 C 3.125 -3.953125 3.15625 -3.578125 3.15625 -3.03125 C 3.15625 -2.484375 3.125 -2.09375 2.4375 -2.09375 Z M 2.96875 0.171875 C 3.78125 0.171875 4.203125 0.3125 4.203125 0.671875 C 4.203125 1.328125 3.0625 1.328125 2.734375 1.328125 C 2.34375 1.328125 1.28125 1.328125 1.28125 0.640625 C 1.28125 0.171875 1.578125 0.171875 1.8125 0.171875 Z M 2.96875 0.171875 "
           id="path8600" />
      </symbol>
      <symbol
         overflow="visible"
         id="symbol3935">
        <path
           style="stroke:none;"
           d="M 4.984375 -3.234375 C 4.984375 -4.265625 4.546875 -4.671875 3.53125 -4.671875 C 2.484375 -4.671875 2.03125 -3.921875 1.90625 -3.65625 L 1.890625 -3.65625 L 1.890625 -4.140625 C 1.890625 -4.46875 1.828125 -4.625 1.421875 -4.625 L 1.078125 -4.625 C 0.71875 -4.625 0.59375 -4.515625 0.59375 -4.140625 L 0.59375 -0.484375 C 0.59375 -0.125 0.703125 0 1.078125 0 L 1.46875 0 C 1.859375 0 1.953125 -0.125 1.953125 -0.484375 L 1.953125 -2.6875 C 1.953125 -3.546875 2.53125 -3.953125 3.046875 -3.953125 C 3.53125 -3.953125 3.625 -3.734375 3.625 -3.21875 L 3.625 -0.484375 C 3.625 -0.15625 3.703125 0 4.109375 0 L 4.5 0 C 4.890625 0 4.984375 -0.125 4.984375 -0.484375 Z M 4.984375 -3.234375 "
           id="path6392" />
      </symbol>
    </g>
    <g
       id="g5549">
      <symbol
         overflow="visible"
         id="symbol4802">
        <path
           style="stroke:none;"
           d=""
           id="path5019" />
      </symbol>
      <symbol
         overflow="visible"
         id="symbol6862">
        <path
           style="stroke:none;"
           d="M 4.296875 -2.140625 C 4.53125 -2.140625 4.78125 -2.140625 4.78125 -2.59375 C 4.78125 -3.875 4.171875 -4.734375 2.6875 -4.734375 C 1.09375 -4.734375 0.3125 -3.84375 0.3125 -2.328125 C 0.3125 -0.6875 1.25 0.109375 2.828125 0.109375 C 3.203125 0.109375 3.765625 0.0625 4.421875 -0.265625 C 4.640625 -0.375 4.71875 -0.40625 4.71875 -0.53125 C 4.71875 -0.59375 4.6875 -0.890625 4.671875 -0.96875 C 4.640625 -1.28125 4.625 -1.28125 4.53125 -1.28125 C 4.5 -1.28125 4.46875 -1.28125 4.359375 -1.1875 C 3.78125 -0.671875 3.1875 -0.609375 2.859375 -0.609375 C 1.734375 -0.609375 1.609375 -1.5 1.578125 -2.140625 Z M 1.59375 -2.65625 C 1.625 -3.265625 1.828125 -4.015625 2.6875 -4.015625 C 3.484375 -4.015625 3.640625 -3.4375 3.671875 -2.65625 Z M 1.59375 -2.65625 "
           id="path3399" />
      </symbol>
      <symbol
         overflow="visible"
         id="symbol3736">
        <path
           style="stroke:none;"
           d="M 1.015625 -6.921875 C 0.703125 -6.921875 0.53125 -6.875 0.53125 -6.46875 L 0.53125 -6.015625 C 0.53125 -5.6875 0.640625 -5.5625 1 -5.5625 L 1.53125 -5.5625 C 2 -5.5625 2 -5.765625 2 -6.234375 C 2 -6.71875 2 -6.921875 1.53125 -6.921875 Z M 1.9375 -4.09375 C 1.9375 -4.40625 1.859375 -4.5625 1.453125 -4.5625 L 1.09375 -4.5625 C 0.734375 -4.5625 0.609375 -4.453125 0.609375 -4.09375 L 0.609375 -0.484375 C 0.609375 -0.125 0.71875 0 1.09375 0 L 1.453125 0 C 1.828125 0 1.9375 -0.125 1.9375 -0.484375 Z M 1.9375 -4.09375 "
           id="path3558" />
      </symbol>
      <symbol
         overflow="visible"
         id="symbol1761">
        <path
           style="stroke:none;"
           d="M 2 -0.921875 C 1.640625 -0.921875 1.5 -0.921875 1.359375 -1.03125 C 1.3125 -1.078125 1.140625 -1.21875 1.140625 -1.484375 C 1.140625 -1.5625 1.15625 -1.578125 1.171875 -1.640625 C 1.640625 -1.375 2.21875 -1.375 2.4375 -1.375 C 2.84375 -1.375 4.4375 -1.375 4.4375 -3.015625 C 4.4375 -3.59375 4.21875 -3.953125 4.125 -4.0625 C 4.296875 -4.0625 4.640625 -4.0625 5.046875 -3.953125 C 5.09375 -3.921875 5.15625 -3.90625 5.1875 -3.90625 C 5.28125 -3.90625 5.328125 -3.96875 5.328125 -4.03125 C 5.328125 -4.078125 5.28125 -4.3125 5.25 -4.421875 C 5.21875 -4.65625 5.21875 -4.671875 5.03125 -4.671875 C 4.71875 -4.671875 4.234375 -4.5625 3.84375 -4.328125 C 3.375 -4.640625 2.859375 -4.671875 2.4375 -4.671875 C 2.015625 -4.671875 0.421875 -4.671875 0.421875 -3.03125 C 0.421875 -2.625 0.53125 -2.140625 0.921875 -1.796875 C 0.640625 -1.4375 0.640625 -1.046875 0.640625 -1 C 0.640625 -0.8125 0.703125 -0.484375 0.921875 -0.203125 C 0.765625 -0.15625 0.25 0.03125 0.25 0.671875 C 0.25 0.984375 0.40625 1.5 1.03125 1.78125 C 1.59375 2.046875 2.265625 2.046875 2.734375 2.046875 C 3.3125 2.046875 5.21875 2.046875 5.21875 0.640625 C 5.21875 -0.921875 3.8125 -0.921875 2.46875 -0.921875 Z M 2.4375 -2.09375 C 1.734375 -2.09375 1.703125 -2.46875 1.703125 -3.015625 C 1.703125 -3.5625 1.734375 -3.953125 2.4375 -3.953125 C 3.125 -3.953125 3.15625 -3.578125 3.15625 -3.03125 C 3.15625 -2.484375 3.125 -2.09375 2.4375 -2.09375 Z M 2.96875 0.171875 C 3.78125 0.171875 4.203125 0.3125 4.203125 0.671875 C 4.203125 1.328125 3.0625 1.328125 2.734375 1.328125 C 2.34375 1.328125 1.28125 1.328125 1.28125 0.640625 C 1.28125 0.171875 1.578125 0.171875 1.8125 0.171875 Z M 2.96875 0.171875 "
           id="path7132" />
      </symbol>
      <symbol
         overflow="visible"
         id="symbol7264">
        <path
           style="stroke:none;"
           d="M 4.984375 -3.234375 C 4.984375 -4.265625 4.546875 -4.671875 3.53125 -4.671875 C 2.484375 -4.671875 2.03125 -3.921875 1.90625 -3.65625 L 1.890625 -3.65625 L 1.890625 -4.140625 C 1.890625 -4.46875 1.828125 -4.625 1.421875 -4.625 L 1.078125 -4.625 C 0.71875 -4.625 0.59375 -4.515625 0.59375 -4.140625 L 0.59375 -0.484375 C 0.59375 -0.125 0.703125 0 1.078125 0 L 1.46875 0 C 1.859375 0 1.953125 -0.125 1.953125 -0.484375 L 1.953125 -2.6875 C 1.953125 -3.546875 2.53125 -3.953125 3.046875 -3.953125 C 3.53125 -3.953125 3.625 -3.734375 3.625 -3.21875 L 3.625 -0.484375 C 3.625 -0.15625 3.703125 0 4.109375 0 L 4.5 0 C 4.890625 0 4.984375 -0.125 4.984375 -0.484375 Z M 4.984375 -3.234375 "
           id="path1619" />
      </symbol>
    </g>
    <g
       id="g2138">
      <symbol
         overflow="visible"
         id="symbol9131">
        <path
           style="stroke:none;"
           d=""
           id="path8968" />
      </symbol>
      <symbol
         overflow="visible"
         id="symbol130">
        <path
           style="stroke:none;"
           d="M 1.78125 -1.140625 C 1.390625 -0.484375 1 -0.34375 0.5625 -0.3125 C 0.4375 -0.296875 0.34375 -0.296875 0.34375 -0.109375 C 0.34375 -0.046875 0.40625 0 0.484375 0 C 0.75 0 1.0625 -0.03125 1.328125 -0.03125 C 1.671875 -0.03125 2.015625 0 2.328125 0 C 2.390625 0 2.515625 0 2.515625 -0.1875 C 2.515625 -0.296875 2.4375 -0.3125 2.359375 -0.3125 C 2.140625 -0.328125 1.890625 -0.40625 1.890625 -0.65625 C 1.890625 -0.78125 1.953125 -0.890625 2.03125 -1.03125 L 2.796875 -2.296875 L 5.296875 -2.296875 C 5.3125 -2.09375 5.453125 -0.734375 5.453125 -0.640625 C 5.453125 -0.34375 4.9375 -0.3125 4.734375 -0.3125 C 4.59375 -0.3125 4.5 -0.3125 4.5 -0.109375 C 4.5 0 4.609375 0 4.640625 0 C 5.046875 0 5.46875 -0.03125 5.875 -0.03125 C 6.125 -0.03125 6.765625 0 7.015625 0 C 7.0625 0 7.1875 0 7.1875 -0.203125 C 7.1875 -0.3125 7.09375 -0.3125 6.953125 -0.3125 C 6.34375 -0.3125 6.34375 -0.375 6.3125 -0.671875 L 5.703125 -6.890625 C 5.6875 -7.09375 5.6875 -7.140625 5.515625 -7.140625 C 5.359375 -7.140625 5.3125 -7.0625 5.25 -6.96875 Z M 2.984375 -2.609375 L 4.9375 -5.90625 L 5.265625 -2.609375 Z M 2.984375 -2.609375 "
           id="path1212" />
      </symbol>
      <symbol
         overflow="visible"
         id="symbol8146">
        <path
           style="stroke:none;"
           d="M 3.328125 -3.015625 C 3.390625 -3.265625 3.625 -4.1875 4.3125 -4.1875 C 4.359375 -4.1875 4.609375 -4.1875 4.8125 -4.0625 C 4.53125 -4 4.34375 -3.765625 4.34375 -3.515625 C 4.34375 -3.359375 4.453125 -3.171875 4.71875 -3.171875 C 4.9375 -3.171875 5.25 -3.34375 5.25 -3.75 C 5.25 -4.265625 4.671875 -4.40625 4.328125 -4.40625 C 3.75 -4.40625 3.40625 -3.875 3.28125 -3.65625 C 3.03125 -4.3125 2.5 -4.40625 2.203125 -4.40625 C 1.171875 -4.40625 0.59375 -3.125 0.59375 -2.875 C 0.59375 -2.765625 0.703125 -2.765625 0.71875 -2.765625 C 0.796875 -2.765625 0.828125 -2.796875 0.84375 -2.875 C 1.1875 -3.9375 1.84375 -4.1875 2.1875 -4.1875 C 2.375 -4.1875 2.71875 -4.09375 2.71875 -3.515625 C 2.71875 -3.203125 2.546875 -2.546875 2.1875 -1.140625 C 2.03125 -0.53125 1.671875 -0.109375 1.234375 -0.109375 C 1.171875 -0.109375 0.953125 -0.109375 0.734375 -0.234375 C 0.984375 -0.296875 1.203125 -0.5 1.203125 -0.78125 C 1.203125 -1.046875 0.984375 -1.125 0.84375 -1.125 C 0.53125 -1.125 0.296875 -0.875 0.296875 -0.546875 C 0.296875 -0.09375 0.78125 0.109375 1.21875 0.109375 C 1.890625 0.109375 2.25 -0.59375 2.265625 -0.640625 C 2.390625 -0.28125 2.75 0.109375 3.34375 0.109375 C 4.375 0.109375 4.9375 -1.171875 4.9375 -1.421875 C 4.9375 -1.53125 4.859375 -1.53125 4.828125 -1.53125 C 4.734375 -1.53125 4.71875 -1.484375 4.6875 -1.421875 C 4.359375 -0.34375 3.6875 -0.109375 3.375 -0.109375 C 2.984375 -0.109375 2.828125 -0.421875 2.828125 -0.765625 C 2.828125 -0.984375 2.875 -1.203125 2.984375 -1.640625 Z M 3.328125 -3.015625 "
           id="path6396" />
      </symbol>
      <symbol
         overflow="visible"
         id="symbol2083">
        <path
           style="stroke:none;"
           d="M 3.5625 -2.90625 C 3.96875 -1.859375 4.453125 -0.34375 4.609375 -0.109375 C 4.765625 0.109375 4.859375 0.109375 5.140625 0.109375 L 5.359375 0.109375 C 5.453125 0.09375 5.46875 0.046875 5.46875 0.015625 C 5.46875 -0.015625 5.4375 -0.046875 5.40625 -0.078125 C 5.3125 -0.1875 5.25 -0.34375 5.1875 -0.53125 L 3.15625 -6.203125 C 2.9375 -6.78125 2.40625 -6.921875 1.9375 -6.921875 C 1.890625 -6.921875 1.75 -6.921875 1.75 -6.8125 C 1.75 -6.734375 1.828125 -6.703125 1.84375 -6.703125 C 2.171875 -6.65625 2.25 -6.59375 2.5 -5.90625 L 3.453125 -3.203125 L 0.703125 -0.46875 C 0.59375 -0.34375 0.53125 -0.296875 0.53125 -0.15625 C 0.53125 0.015625 0.671875 0.125 0.828125 0.125 C 0.984375 0.125 1.078125 0.015625 1.15625 -0.078125 Z M 3.5625 -2.90625 "
           id="path9325" />
      </symbol>
      <symbol
         overflow="visible"
         id="symbol1710">
        <path
           style="stroke:none;"
           d=""
           id="path3208" />
      </symbol>
      <symbol
         overflow="visible"
         id="symbol1890">
        <path
           style="stroke:none;"
           d="M 6.84375 -3.265625 C 7 -3.265625 7.1875 -3.265625 7.1875 -3.453125 C 7.1875 -3.65625 7 -3.65625 6.859375 -3.65625 L 0.890625 -3.65625 C 0.75 -3.65625 0.5625 -3.65625 0.5625 -3.453125 C 0.5625 -3.265625 0.75 -3.265625 0.890625 -3.265625 Z M 6.859375 -1.328125 C 7 -1.328125 7.1875 -1.328125 7.1875 -1.53125 C 7.1875 -1.71875 7 -1.71875 6.84375 -1.71875 L 0.890625 -1.71875 C 0.75 -1.71875 0.5625 -1.71875 0.5625 -1.53125 C 0.5625 -1.328125 0.75 -1.328125 0.890625 -1.328125 Z M 6.859375 -1.328125 "
           id="path6881" />
      </symbol>
    </g>
  </defs>
  <g
     inkscape:label="Layer 1"
     inkscape:groupmode="layer"
     id="layer1"
     transform="translate(-186.656, -98.2073)">
    <text
       xml:space="preserve"
       style="font-size:4.23333px;font-family:sans-serif;-inkscape-font-specification:sans-serif;fill:#fdf0e3;fill-opacity:1;stroke:#4a280d;stroke-width:15;stroke-linecap:round;stroke-linejoin:round;stroke-miterlimit:4;stroke-dasharray:none"
       x="214.69817"
       y="116.24603"
       id="text265343"><tspan
         sodipodi:role="line"
         id="tspan265341"
         style="stroke-width:15;stroke-miterlimit:4;stroke-dasharray:none"
         x="214.69817"
         y="116.24603" /></text>
    <text
       xml:space="preserve"
       style="font-size:4.23333px;font-family:sans-serif;-inkscape-font-specification:sans-serif;fill:#fdf0e3;fill-opacity:1;stroke:#4a280d;stroke-width:15;stroke-linecap:round;stroke-linejoin:round;stroke-miterlimit:4;stroke-dasharray:none"
       x="214.23691"
       y="114.62688"
       id="text268683"><tspan
         sodipodi:role="line"
         id="tspan268681"
         style="stroke-width:15"
         x="214.23691"
         y="114.62688" /></text>
    <text
       xml:space="preserve"
       style="font-size:4.23333px;font-family:sans-serif;-inkscape-font-specification:sans-serif;fill:#fdf0e3;fill-opacity:1;stroke:#4a280d;stroke-width:5;stroke-linecap:round;stroke-linejoin:round;stroke-miterlimit:4;stroke-dasharray:none"
       x="242.03822"
       y="123.46563"
       id="text270271"><tspan
         sodipodi:role="line"
         id="tspan270269"
         style="stroke-width:5;stroke-miterlimit:4;stroke-dasharray:none"
         x="242.03822"
         y="123.46563" /></text>
    <text
       xml:space="preserve"
       style="font-size:4.23333px;font-family:sans-serif;-inkscape-font-specification:sans-serif;fill:#fdf0e3;fill-opacity:1;stroke:#4a280d;stroke-width:4.99999;stroke-linecap:round;stroke-linejoin:round;stroke-miterlimit:4;stroke-dasharray:none"
       x="244.82349"
       y="125.95525"
       id="text275393"><tspan
         sodipodi:role="line"
         id="tspan275391"
         style="stroke-width:5"
         x="244.82349"
         y="125.95525" /></text>
    <g
       id="g193503"
       transform="translate(0, 0.181063)">
      <g
         id="g193548">
        <text
           xml:space="preserve"
           style="font-size:4.23333px;font-family:sans-serif;-inkscape-font-specification:sans-serif;fill:#fdf0e3;fill-opacity:1;stroke:#4a280d;stroke-width:15;stroke-linecap:round;stroke-linejoin:round;stroke-miterlimit:4;stroke-dasharray:none"
           x="264.96298"
           y="116.49283"
           id="text265343-7"><tspan
             sodipodi:role="line"
             id="tspan265341-8"
             style="stroke-width:15;stroke-miterlimit:4;stroke-dasharray:none"
             x="264.96298"
             y="116.49283" /></text>
        <text
           xml:space="preserve"
           style="font-size:4.23333px;font-family:sans-serif;-inkscape-font-specification:sans-serif;fill:#fdf0e3;fill-opacity:1;stroke:#4a280d;stroke-width:15;stroke-linecap:round;stroke-linejoin:round;stroke-miterlimit:4;stroke-dasharray:none"
           x="264.50171"
           y="114.87369"
           id="text268683-6"><tspan
             sodipodi:role="line"
             id="tspan268681-8"
             style="stroke-width:15"
             x="264.50171"
             y="114.87369" /></text>
        <text
           xml:space="preserve"
           style="font-size:4.23333px;font-family:sans-serif;-inkscape-font-specification:sans-serif;fill:#fdf0e3;fill-opacity:1;stroke:#4a280d;stroke-width:5;stroke-linecap:round;stroke-linejoin:round;stroke-miterlimit:4;stroke-dasharray:none"
           x="292.30304"
           y="123.71243"
           id="text270271-8"><tspan
             sodipodi:role="line"
             id="tspan270269-4"
             style="stroke-width:5;stroke-miterlimit:4;stroke-dasharray:none"
             x="292.30304"
             y="123.71243" /></text>
        <text
           xml:space="preserve"
           style="font-size:4.23333px;font-family:sans-serif;-inkscape-font-specification:sans-serif;fill:#fdf0e3;fill-opacity:1;stroke:#4a280d;stroke-width:4.99999;stroke-linecap:round;stroke-linejoin:round;stroke-miterlimit:4;stroke-dasharray:none"
           x="295.08829"
           y="126.20206"
           id="text275393-3"><tspan
             sodipodi:role="line"
             id="tspan275391-1"
             style="stroke-width:5"
             x="295.08829"
             y="126.20206" /></text>
        <g
           id="g1241"
           transform="matrix(0.264583 0 0 0.264583 231.763 34.2922)">
          <g
             inkscape:label=""
             transform="matrix(3.77953 0 0 3.77953 -76.9592 300.091)"
             id="g13000">
            <g
               id="g7231">
              <g
                 style="fill:#000000;fill-opacity:1"
                 id="g4072" />
              <g
                 id="g16819"
                 transform="rotate(30,-2.78033,9.7508779)">
                <g
                   id="g16979">
                  <g
                     id="g17193"
                     transform="rotate(-30,-2.78033,9.7508779)"
                     inkscape:export-filename="/home/pacha/github/cpp11eigen/inst/rstudio/templates/project/cpp11eigen_small.png"
                     inkscape:export-xdpi="359.92401"
                     inkscape:export-ydpi="359.92401">
                    <g
                       id="g17826"
                       inkscape:export-filename="/home/pacha/github/cpp11eigen/inst/rstudio/templates/project/cpp11eigen_small.png"
                       inkscape:export-xdpi="359.92401"
                       inkscape:export-ydpi="359.92401">
                      <path
                         sodipodi:type="star"
                         style="fill:#fbedc4;fill-opacity:1;stroke:#000000;stroke-width:73.9932;stroke-miterlimit:4;stroke-dasharray:none;stroke-opacity:1"
                         id="path4560"
                         sodipodi:sides="6"
                         sodipodi:cx="-5551.2134"
                         sodipodi:cy="-204.52565"
                         sodipodi:r1="1701.6108"
                         sodipodi:r2="1473.6381"
                         sodipodi:arg1="1.0471976"
                         sodipodi:arg2="1.5707963"
                         inkscape:flatsided="true"
                         inkscape:rounded="0"
                         inkscape:randomized="0"
                         inkscape:transform-center-x="1.5731476e-05"
                         inkscape:transform-center-y="7.9344316e-05"
                         transform="matrix(0,0.01457053,-0.01454012,0,-5.7541575,90.634999)"
                         d="m -4700.408,1269.1126 -1701.6109,-10e-5 -850.8053,-1473.63823 850.8055,-1473.63817 1701.6108,10e-5 850.8054,1473.63823 z" />
                      <path
                         style="fill:none;stroke:#a51d1e;stroke-width:0.76;stroke-linejoin:round;stroke-miterlimit:4;stroke-dasharray:none;marker-end:url(#TriangleOutM)"
                         d="M -22.401697,21.105151 14.977117,-0.51428663"
                         id="path14353"
                         sodipodi:nodetypes="cc" />
                      <use
                         xlink:href="#symbol6862"
                         x="91.925003"
                         y="81.962997"
                         id="use1529"
                         width="100%"
                         height="100%"
                         transform="rotate(-30,-66.582966,241.34603)"
                         style="fill:#000000;fill-opacity:1" />
                      <use
                         xlink:href="#symbol3736"
                         x="97.016884"
                         y="81.962997"
                         id="use7865"
                         width="100%"
                         height="100%"
                         transform="rotate(-30,-66.582966,241.34603)"
                         style="fill:#000000;fill-opacity:1" />
                      <use
                         xlink:href="#symbol1761"
                         x="99.563324"
                         y="81.962997"
                         id="use5794"
                         width="100%"
                         height="100%"
                         transform="rotate(-30,-66.582966,241.34603)"
                         style="fill:#000000;fill-opacity:1" />
                      <use
                         xlink:href="#symbol6862"
                         x="105.04276"
                         y="81.962997"
                         id="use8464"
                         width="100%"
                         height="100%"
                         transform="rotate(-30,-66.582966,241.34603)"
                         style="fill:#000000;fill-opacity:1" />
                      <use
                         xlink:href="#symbol7264"
                         x="110.13464"
                         y="81.962997"
                         id="use9070"
                         width="100%"
                         height="100%"
                         transform="rotate(-30,-66.582966,241.34603)"
                         style="fill:#000000;fill-opacity:1" />
                      <use
                         xlink:href="#symbol130"
                         x="91.925003"
                         y="81.962997"
                         id="use8177"
                         width="100%"
                         height="100%"
                         transform="rotate(-30,-84.995666,260.6281)"
                         style="fill:#000000;fill-opacity:1" />
                      <use
                         xlink:href="#symbol8146"
                         x="99.39695"
                         y="81.962997"
                         id="use9055"
                         width="100%"
                         height="100%"
                         transform="rotate(-30,-84.995666,260.6281)"
                         style="fill:#000000;fill-opacity:1" />
                      <use
                         xlink:href="#symbol1890"
                         x="107.859"
                         y="81.962997"
                         id="use7071"
                         width="100%"
                         height="100%"
                         transform="rotate(-30,-84.995666,260.6281)"
                         style="fill:#000000;fill-opacity:1" />
                      <use
                         xlink:href="#symbol2083"
                         x="118.375"
                         y="81.962997"
                         id="use8715"
                         width="100%"
                         height="100%"
                         transform="rotate(-30,-84.995666,260.6281)"
                         style="fill:#000000;fill-opacity:1" />
                      <use
                         xlink:href="#symbol8146"
                         x="124.18619"
                         y="81.962997"
                         id="use8418"
                         width="100%"
                         height="100%"
                         transform="rotate(-30,-84.995666,260.6281)"
                         style="fill:#000000;fill-opacity:1" />
                      <path
                         style="fill:none;stroke:#181c57;stroke-width:0.76;stroke-linejoin:round;stroke-miterlimit:4;stroke-dasharray:none;marker-end:url(#TriangleOutM)"
                         d="m -22.401697,21.105151 7.4847,-4.360063"
                         id="path17160"
                         sodipodi:nodetypes="cc" />
                    </g>
                  </g>
                </g>
              </g>
            </g>
          </g>
        </g>
      </g>
    </g>
  </g>
  <style
     type="text/css"
     id="style10296">
	.st0{fill:#75AADB;}
	.st1{fill:#4D4D4D;}
	.st2{fill:#FFFFFF;}
	.st3{fill:url(#SVGID_1_);}
	.st4{fill:url(#SVGID_2_);}
	.st5{fill:url(#SVGID_3_);}
	.st6{fill:url(#SVGID_4_);}
	.st7{fill:url(#SVGID_5_);}
	.st8{fill:url(#SVGID_6_);}
	.st9{fill:url(#SVGID_7_);}
	.st10{fill:url(#SVGID_8_);}
	.st11{fill:url(#SVGID_9_);}
	.st12{fill:url(#SVGID_10_);}
	.st13{opacity:0.18;fill:url(#SVGID_11_);}
	.st14{opacity:0.3;}
</style>
  <style
     type="text/css"
     id="style10296-7">
	.st0{fill:#75AADB;}
	.st1{fill:#4D4D4D;}
	.st2{fill:#FFFFFF;}
	.st3{fill:url(#SVGID_1_);}
	.st4{fill:url(#SVGID_2_);}
	.st5{fill:url(#SVGID_3_);}
	.st6{fill:url(#SVGID_4_);}
	.st7{fill:url(#SVGID_5_);}
	.st8{fill:url(#SVGID_6_);}
	.st9{fill:url(#SVGID_7_);}
	.st10{fill:url(#SVGID_8_);}
	.st11{fill:url(#SVGID_9_);}
	.st12{fill:url(#SVGID_10_);}
	.st13{opacity:0.18;fill:url(#SVGID_11_);}
	.st14{opacity:0.3;}
</style>
  <style
     type="text/css"
     id="style10296-4">
	.st0{fill:#75AADB;}
	.st1{fill:#4D4D4D;}
	.st2{fill:#FFFFFF;}
	.st3{fill:url(#SVGID_1_);}
	.st4{fill:url(#SVGID_2_);}
	.st5{fill:url(#SVGID_3_);}
	.st6{fill:url(#SVGID_4_);}
	.st7{fill:url(#SVGID_5_);}
	.st8{fill:url(#SVGID_6_);}
	.st9{fill:url(#SVGID_7_);}
	.st10{fill:url(#SVGID_8_);}
	.st11{fill:url(#SVGID_9_);}
	.st12{fill:url(#SVGID_10_);}
	.st13{opacity:0.18;fill:url(#SVGID_11_);}
	.st14{opacity:0.3;}
</style>
  <style
     type="text/css"
     id="style10296-9">
	.st0{fill:#75AADB;}
	.st1{fill:#4D4D4D;}
	.st2{fill:#FFFFFF;}
	.st3{fill:url(#SVGID_1_);}
	.st4{fill:url(#SVGID_2_);}
	.st5{fill:url(#SVGID_3_);}
	.st6{fill:url(#SVGID_4_);}
	.st7{fill:url(#SVGID_5_);}
	.st8{fill:url(#SVGID_6_);}
	.st9{fill:url(#SVGID_7_);}
	.st10{fill:url(#SVGID_8_);}
	.st11{fill:url(#SVGID_9_);}
	.st12{fill:url(#SVGID_10_);}
	.st13{opacity:0.18;fill:url(#SVGID_11_);}
	.st14{opacity:0.3;}
</style>
  <style
     type="text/css"
     id="style10296-2">
	.st0{fill:#75AADB;}
	.st1{fill:#4D4D4D;}
	.st2{fill:#FFFFFF;}
	.st3{fill:url(#SVGID_1_);}
	.st4{fill:url(#SVGID_2_);}
	.st5{fill:url(#SVGID_3_);}
	.st6{fill:url(#SVGID_4_);}
	.st7{fill:url(#SVGID_5_);}
	.st8{fill:url(#SVGID_6_);}
	.st9{fill:url(#SVGID_7_);}
	.st10{fill:url(#SVGID_8_);}
	.st11{fill:url(#SVGID_9_);}
	.st12{fill:url(#SVGID_10_);}
	.st13{opacity:0.18;fill:url(#SVGID_11_);}
	.st14{opacity:0.3;}
</style>
  <style
     type="text/css"
     id="style10296-6">
	.st0{fill:#75AADB;}
	.st1{fill:#4D4D4D;}
	.st2{fill:#FFFFFF;}
	.st3{fill:url(#SVGID_1_);}
	.st4{fill:url(#SVGID_2_);}
	.st5{fill:url(#SVGID_3_);}
	.st6{fill:url(#SVGID_4_);}
	.st7{fill:url(#SVGID_5_);}
	.st8{fill:url(#SVGID_6_);}
	.st9{fill:url(#SVGID_7_);}
	.st10{fill:url(#SVGID_8_);}
	.st11{fill:url(#SVGID_9_);}
	.st12{fill:url(#SVGID_10_);}
	.st13{opacity:0.18;fill:url(#SVGID_11_);}
	.st14{opacity:0.3;}
</style>
  <style
     type="text/css"
     id="style10296-3">
	.st0{fill:#75AADB;}
	.st1{fill:#4D4D4D;}
	.st2{fill:#FFFFFF;}
	.st3{fill:url(#SVGID_1_);}
	.st4{fill:url(#SVGID_2_);}
	.st5{fill:url(#SVGID_3_);}
	.st6{fill:url(#SVGID_4_);}
	.st7{fill:url(#SVGID_5_);}
	.st8{fill:url(#SVGID_6_);}
	.st9{fill:url(#SVGID_7_);}
	.st10{fill:url(#SVGID_8_);}
	.st11{fill:url(#SVGID_9_);}
	.st12{fill:url(#SVGID_10_);}
	.st13{opacity:0.18;fill:url(#SVGID_11_);}
	.st14{opacity:0.3;}
</style>
  <style
     type="text/css"
     id="style10296-7-1">
	.st0{fill:#75AADB;}
	.st1{fill:#4D4D4D;}
	.st2{fill:#FFFFFF;}
	.st3{fill:url(#SVGID_1_);}
	.st4{fill:url(#SVGID_2_);}
	.st5{fill:url(#SVGID_3_);}
	.st6{fill:url(#SVGID_4_);}
	.st7{fill:url(#SVGID_5_);}
	.st8{fill:url(#SVGID_6_);}
	.st9{fill:url(#SVGID_7_);}
	.st10{fill:url(#SVGID_8_);}
	.st11{fill:url(#SVGID_9_);}
	.st12{fill:url(#SVGID_10_);}
	.st13{opacity:0.18;fill:url(#SVGID_11_);}
	.st14{opacity:0.3;}
</style>
  <style
     type="text/css"
     id="style10296-4-5">
	.st0{fill:#75AADB;}
	.st1{fill:#4D4D4D;}
	.st2{fill:#FFFFFF;}
	.st3{fill:url(#SVGID_1_);}
	.st4{fill:url(#SVGID_2_);}
	.st5{fill:url(#SVGID_3_);}
	.st6{fill:url(#SVGID_4_);}
	.st7{fill:url(#SVGID_5_);}
	.st8{fill:url(#SVGID_6_);}
	.st9{fill:url(#SVGID_7_);}
	.st10{fill:url(#SVGID_8_);}
	.st11{fill:url(#SVGID_9_);}
	.st12{fill:url(#SVGID_10_);}
	.st13{opacity:0.18;fill:url(#SVGID_11_);}
	.st14{opacity:0.3;}
</style>
  <style
     type="text/css"
     id="style10296-9-5">
	.st0{fill:#75AADB;}
	.st1{fill:#4D4D4D;}
	.st2{fill:#FFFFFF;}
	.st3{fill:url(#SVGID_1_);}
	.st4{fill:url(#SVGID_2_);}
	.st5{fill:url(#SVGID_3_);}
	.st6{fill:url(#SVGID_4_);}
	.st7{fill:url(#SVGID_5_);}
	.st8{fill:url(#SVGID_6_);}
	.st9{fill:url(#SVGID_7_);}
	.st10{fill:url(#SVGID_8_);}
	.st11{fill:url(#SVGID_9_);}
	.st12{fill:url(#SVGID_10_);}
	.st13{opacity:0.18;fill:url(#SVGID_11_);}
	.st14{opacity:0.3;}
</style>
  <style
     type="text/css"
     id="style10296-2-4">
	.st0{fill:#75AADB;}
	.st1{fill:#4D4D4D;}
	.st2{fill:#FFFFFF;}
	.st3{fill:url(#SVGID_1_);}
	.st4{fill:url(#SVGID_2_);}
	.st5{fill:url(#SVGID_3_);}
	.st6{fill:url(#SVGID_4_);}
	.st7{fill:url(#SVGID_5_);}
	.st8{fill:url(#SVGID_6_);}
	.st9{fill:url(#SVGID_7_);}
	.st10{fill:url(#SVGID_8_);}
	.st11{fill:url(#SVGID_9_);}
	.st12{fill:url(#SVGID_10_);}
	.st13{opacity:0.18;fill:url(#SVGID_11_);}
	.st14{opacity:0.3;}
</style>
  <style
     type="text/css"
     id="style1104">
	.st0{fill:#B5A99C;}
	.st1{fill:#6C5C48;}
	.st2{fill:#4A280C;}
</style>
</svg>
